%TF.GenerationSoftware,KiCad,Pcbnew,9.0.7*%
%TF.CreationDate,2026-02-11T09:42:11+01:00*%
%TF.ProjectId,3DN_td_kicad,33444e5f-7464-45f6-9b69-6361642e6b69,1.0*%
%TF.SameCoordinates,Original*%
%TF.FileFunction,Copper,L1,Top*%
%TF.FilePolarity,Positive*%
%FSLAX46Y46*%
G04 Gerber Fmt 4.6, Leading zero omitted, Abs format (unit mm)*
G04 Created by KiCad (PCBNEW 9.0.7) date 2026-02-11 09:42:11*
%MOMM*%
%LPD*%
G01*
G04 APERTURE LIST*
G04 Aperture macros list*
%AMRoundRect*
0 Rectangle with rounded corners*
0 $1 Rounding radius*
0 $2 $3 $4 $5 $6 $7 $8 $9 X,Y pos of 4 corners*
0 Add a 4 corners polygon primitive as box body*
4,1,4,$2,$3,$4,$5,$6,$7,$8,$9,$2,$3,0*
0 Add four circle primitives for the rounded corners*
1,1,$1+$1,$2,$3*
1,1,$1+$1,$4,$5*
1,1,$1+$1,$6,$7*
1,1,$1+$1,$8,$9*
0 Add four rect primitives between the rounded corners*
20,1,$1+$1,$2,$3,$4,$5,0*
20,1,$1+$1,$4,$5,$6,$7,0*
20,1,$1+$1,$6,$7,$8,$9,0*
20,1,$1+$1,$8,$9,$2,$3,0*%
G04 Aperture macros list end*
%TA.AperFunction,SMDPad,CuDef*%
%ADD10RoundRect,0.162500X-0.617500X-0.162500X0.617500X-0.162500X0.617500X0.162500X-0.617500X0.162500X0*%
%TD*%
%TA.AperFunction,SMDPad,CuDef*%
%ADD11RoundRect,0.125000X-0.625000X-0.125000X0.625000X-0.125000X0.625000X0.125000X-0.625000X0.125000X0*%
%TD*%
%TA.AperFunction,SMDPad,CuDef*%
%ADD12RoundRect,0.125000X-0.125000X-0.625000X0.125000X-0.625000X0.125000X0.625000X-0.125000X0.625000X0*%
%TD*%
%TA.AperFunction,SMDPad,CuDef*%
%ADD13RoundRect,0.237500X-0.237500X0.250000X-0.237500X-0.250000X0.237500X-0.250000X0.237500X0.250000X0*%
%TD*%
%TA.AperFunction,SMDPad,CuDef*%
%ADD14RoundRect,0.237500X0.250000X0.237500X-0.250000X0.237500X-0.250000X-0.237500X0.250000X-0.237500X0*%
%TD*%
%TA.AperFunction,SMDPad,CuDef*%
%ADD15RoundRect,0.237500X0.237500X-0.250000X0.237500X0.250000X-0.237500X0.250000X-0.237500X-0.250000X0*%
%TD*%
%TA.AperFunction,ComponentPad*%
%ADD16RoundRect,0.250000X0.750000X-0.600000X0.750000X0.600000X-0.750000X0.600000X-0.750000X-0.600000X0*%
%TD*%
%TA.AperFunction,ComponentPad*%
%ADD17O,2.000000X1.700000*%
%TD*%
%TA.AperFunction,ComponentPad*%
%ADD18RoundRect,0.250000X-0.725000X0.600000X-0.725000X-0.600000X0.725000X-0.600000X0.725000X0.600000X0*%
%TD*%
%TA.AperFunction,ComponentPad*%
%ADD19O,1.950000X1.700000*%
%TD*%
%TA.AperFunction,ComponentPad*%
%ADD20RoundRect,0.250000X0.600000X0.725000X-0.600000X0.725000X-0.600000X-0.725000X0.600000X-0.725000X0*%
%TD*%
%TA.AperFunction,ComponentPad*%
%ADD21O,1.700000X1.950000*%
%TD*%
%TA.AperFunction,ComponentPad*%
%ADD22RoundRect,0.250000X0.725000X-0.600000X0.725000X0.600000X-0.725000X0.600000X-0.725000X-0.600000X0*%
%TD*%
%TA.AperFunction,SMDPad,CuDef*%
%ADD23R,0.740000X2.400000*%
%TD*%
%TA.AperFunction,ComponentPad*%
%ADD24C,0.800000*%
%TD*%
%TA.AperFunction,ComponentPad*%
%ADD25C,6.400000*%
%TD*%
%TA.AperFunction,SMDPad,CuDef*%
%ADD26RoundRect,0.237500X0.237500X-0.287500X0.237500X0.287500X-0.237500X0.287500X-0.237500X-0.287500X0*%
%TD*%
%TA.AperFunction,SMDPad,CuDef*%
%ADD27RoundRect,0.237500X-0.287500X-0.237500X0.287500X-0.237500X0.287500X0.237500X-0.287500X0.237500X0*%
%TD*%
%TA.AperFunction,SMDPad,CuDef*%
%ADD28RoundRect,0.237500X0.300000X0.237500X-0.300000X0.237500X-0.300000X-0.237500X0.300000X-0.237500X0*%
%TD*%
%TA.AperFunction,SMDPad,CuDef*%
%ADD29RoundRect,0.237500X-0.237500X0.300000X-0.237500X-0.300000X0.237500X-0.300000X0.237500X0.300000X0*%
%TD*%
%TA.AperFunction,ViaPad*%
%ADD30C,0.450000*%
%TD*%
%TA.AperFunction,Conductor*%
%ADD31C,0.300000*%
%TD*%
%TA.AperFunction,Conductor*%
%ADD32C,0.400000*%
%TD*%
G04 APERTURE END LIST*
D10*
%TO.P,U2,1,VIN*%
%TO.N,+5V*%
X107650000Y-110050000D03*
%TO.P,U2,2,GND*%
%TO.N,GND*%
X107650000Y-111000000D03*
%TO.P,U2,3,EN*%
%TO.N,+5V*%
X107650000Y-111950000D03*
%TO.P,U2,4,NC*%
%TO.N,unconnected-(U2-NC-Pad4)*%
X110350000Y-111950000D03*
%TO.P,U2,5,VOUT*%
%TO.N,+3.3V*%
X110350000Y-110050000D03*
%TD*%
D11*
%TO.P,U1,1,PB9*%
%TO.N,unconnected-(U1-PB9-Pad1)*%
X115825000Y-117200000D03*
%TO.P,U1,2,PC14*%
%TO.N,unconnected-(U1-PC14-Pad2)*%
X115825000Y-118000000D03*
%TO.P,U1,3,PC15*%
%TO.N,unconnected-(U1-PC15-Pad3)*%
X115825000Y-118800000D03*
%TO.P,U1,4,VDD*%
%TO.N,+3.3V*%
X115825000Y-119600000D03*
%TO.P,U1,5,VSS*%
%TO.N,GND*%
X115825000Y-120400000D03*
%TO.P,U1,6,PF2*%
%TO.N,/nRST*%
X115825000Y-121200000D03*
%TO.P,U1,7,PA0*%
%TO.N,/ADC_IN0*%
X115825000Y-122000000D03*
%TO.P,U1,8,PA1*%
%TO.N,/ADC_IN1*%
X115825000Y-122800000D03*
D12*
%TO.P,U1,9,PA2*%
%TO.N,unconnected-(U1-PA2-Pad9)*%
X117200000Y-124175000D03*
%TO.P,U1,10,PA3*%
%TO.N,unconnected-(U1-PA3-Pad10)*%
X118000000Y-124175000D03*
%TO.P,U1,11,PA4*%
%TO.N,/SPI1_NSS*%
X118800000Y-124175000D03*
%TO.P,U1,12,PA5*%
%TO.N,/SPI1_SCK*%
X119600000Y-124175000D03*
%TO.P,U1,13,PA6*%
%TO.N,/SPI1_MISO*%
X120400000Y-124175000D03*
%TO.P,U1,14,PA7*%
%TO.N,/SPI1_MOSI*%
X121200000Y-124175000D03*
%TO.P,U1,15,PB0*%
%TO.N,/TIM3_CH3*%
X122000000Y-124175000D03*
%TO.P,U1,16,PB1*%
%TO.N,/TIM3_CH4*%
X122800000Y-124175000D03*
D11*
%TO.P,U1,17,PB2*%
%TO.N,unconnected-(U1-PB2-Pad17)*%
X124175000Y-122800000D03*
%TO.P,U1,18,PA8*%
%TO.N,unconnected-(U1-PA8-Pad18)*%
X124175000Y-122000000D03*
%TO.P,U1,19,NC/PA9*%
%TO.N,unconnected-(U1-NC{slash}PA9-Pad19)*%
X124175000Y-121200000D03*
%TO.P,U1,20,PC6*%
%TO.N,unconnected-(U1-PC6-Pad20)*%
X124175000Y-120400000D03*
%TO.P,U1,21,NC/PA10*%
%TO.N,unconnected-(U1-NC{slash}PA10-Pad21)*%
X124175000Y-119600000D03*
%TO.P,U1,22,PA9/PA11*%
%TO.N,/I2C2_SCL*%
X124175000Y-118800000D03*
%TO.P,U1,23,PA10/PA12*%
%TO.N,/I2C2_SDA*%
X124175000Y-118000000D03*
%TO.P,U1,24,PA13*%
%TO.N,/SWDIO*%
X124175000Y-117200000D03*
D12*
%TO.P,U1,25,PA14*%
%TO.N,/SWCLK*%
X122800000Y-115825000D03*
%TO.P,U1,26,PA15*%
%TO.N,unconnected-(U1-PA15-Pad26)*%
X122000000Y-115825000D03*
%TO.P,U1,27,PB3*%
%TO.N,unconnected-(U1-PB3-Pad27)*%
X121200000Y-115825000D03*
%TO.P,U1,28,PB4*%
%TO.N,unconnected-(U1-PB4-Pad28)*%
X120400000Y-115825000D03*
%TO.P,U1,29,PB5*%
%TO.N,unconnected-(U1-PB5-Pad29)*%
X119600000Y-115825000D03*
%TO.P,U1,30,PB6*%
%TO.N,/VCP_TX*%
X118800000Y-115825000D03*
%TO.P,U1,31,PB7*%
%TO.N,/VCP_RX*%
X118000000Y-115825000D03*
%TO.P,U1,32,PB8*%
%TO.N,unconnected-(U1-PB8-Pad32)*%
X117200000Y-115825000D03*
%TD*%
D13*
%TO.P,R5,1*%
%TO.N,/TIM3_CH3*%
X132000000Y-136087500D03*
%TO.P,R5,2*%
%TO.N,Net-(D3-A)*%
X132000000Y-137912500D03*
%TD*%
%TO.P,R4,1*%
%TO.N,/TIM3_CH4*%
X135000000Y-136087500D03*
%TO.P,R4,2*%
%TO.N,Net-(D2-A)*%
X135000000Y-137912500D03*
%TD*%
D14*
%TO.P,R3,1*%
%TO.N,+3.3V*%
X103912500Y-105000000D03*
%TO.P,R3,2*%
%TO.N,Net-(D1-A)*%
X102087500Y-105000000D03*
%TD*%
D13*
%TO.P,R2,1*%
%TO.N,+3.3V*%
X131000000Y-114187500D03*
%TO.P,R2,2*%
%TO.N,/I2C2_SDA*%
X131000000Y-116012500D03*
%TD*%
D15*
%TO.P,R1,1*%
%TO.N,+3.3V*%
X131000000Y-120312500D03*
%TO.P,R1,2*%
%TO.N,/I2C2_SCL*%
X131000000Y-118487500D03*
%TD*%
D16*
%TO.P,J5,1,Pin_1*%
%TO.N,GND*%
X100000000Y-112500000D03*
D17*
%TO.P,J5,2,Pin_2*%
%TO.N,+5V*%
X100000000Y-110000000D03*
%TD*%
D18*
%TO.P,J4,1,Pin_1*%
%TO.N,GND*%
X140000000Y-113500000D03*
D19*
%TO.P,J4,2,Pin_2*%
%TO.N,/I2C2_SDA*%
X140000000Y-116000000D03*
%TO.P,J4,3,Pin_3*%
%TO.N,/I2C2_SCL*%
X140000000Y-118500000D03*
%TO.P,J4,4,Pin_4*%
%TO.N,+3.3V*%
X140000000Y-121000000D03*
%TD*%
D20*
%TO.P,J3,1,Pin_1*%
%TO.N,GND*%
X127000000Y-141000000D03*
D21*
%TO.P,J3,2,Pin_2*%
%TO.N,/SPI1_MOSI*%
X124500000Y-141000000D03*
%TO.P,J3,3,Pin_3*%
%TO.N,/SPI1_MISO*%
X122000000Y-141000000D03*
%TO.P,J3,4,Pin_4*%
%TO.N,/SPI1_SCK*%
X119500000Y-141000000D03*
%TO.P,J3,5,Pin_5*%
%TO.N,/SPI1_NSS*%
X117000000Y-141000000D03*
%TO.P,J3,6,Pin_6*%
%TO.N,+3.3V*%
X114500000Y-141000000D03*
%TD*%
D22*
%TO.P,J2,1,Pin_1*%
%TO.N,GND*%
X100000000Y-127500000D03*
D19*
%TO.P,J2,2,Pin_2*%
%TO.N,/ADC_IN1*%
X100000000Y-125000000D03*
%TO.P,J2,3,Pin_3*%
%TO.N,/ADC_IN0*%
X100000000Y-122500000D03*
%TO.P,J2,4,Pin_4*%
%TO.N,+3.3V*%
X100000000Y-120000000D03*
%TD*%
D23*
%TO.P,J1,1,NC*%
%TO.N,unconnected-(J1-NC-Pad1)*%
X123810000Y-99050000D03*
%TO.P,J1,2,NC*%
%TO.N,unconnected-(J1-NC-Pad2)*%
X123810000Y-102950000D03*
%TO.P,J1,3,VCC*%
%TO.N,+3.3V*%
X122540000Y-99050000D03*
%TO.P,J1,4,JTMS/SWDIO*%
%TO.N,/SWDIO*%
X122540000Y-102950000D03*
%TO.P,J1,5,GND*%
%TO.N,GND*%
X121270000Y-99050000D03*
%TO.P,J1,6,JCLK/SWCLK*%
%TO.N,/SWCLK*%
X121270000Y-102950000D03*
%TO.P,J1,7,GND*%
%TO.N,GND*%
X120000000Y-99050000D03*
%TO.P,J1,8,JTDO/SWO*%
%TO.N,unconnected-(J1-JTDO{slash}SWO-Pad8)*%
X120000000Y-102950000D03*
%TO.P,J1,9,JRCLK/NC*%
%TO.N,unconnected-(J1-JRCLK{slash}NC-Pad9)*%
X118730000Y-99050000D03*
%TO.P,J1,10,JTDI/NC*%
%TO.N,unconnected-(J1-JTDI{slash}NC-Pad10)*%
X118730000Y-102950000D03*
%TO.P,J1,11,GNDDetect*%
%TO.N,GND*%
X117460000Y-99050000D03*
%TO.P,J1,12,~{RST}*%
%TO.N,/nRST*%
X117460000Y-102950000D03*
%TO.P,J1,13,VCP_RX*%
%TO.N,/VCP_RX*%
X116190000Y-99050000D03*
%TO.P,J1,14,VCP_TX*%
%TO.N,/VCP_TX*%
X116190000Y-102950000D03*
%TD*%
D24*
%TO.P,H4,1,1*%
%TO.N,GND*%
X137600000Y-140000000D03*
X138302944Y-138302944D03*
X138302944Y-141697056D03*
X140000000Y-137600000D03*
D25*
X140000000Y-140000000D03*
D24*
X140000000Y-142400000D03*
X141697056Y-138302944D03*
X141697056Y-141697056D03*
X142400000Y-140000000D03*
%TD*%
%TO.P,H3,1,1*%
%TO.N,GND*%
X97600000Y-140000000D03*
X98302944Y-138302944D03*
X98302944Y-141697056D03*
X100000000Y-137600000D03*
D25*
X100000000Y-140000000D03*
D24*
X100000000Y-142400000D03*
X101697056Y-138302944D03*
X101697056Y-141697056D03*
X102400000Y-140000000D03*
%TD*%
%TO.P,H2,1,1*%
%TO.N,GND*%
X137600000Y-100000000D03*
X138302944Y-98302944D03*
X138302944Y-101697056D03*
X140000000Y-97600000D03*
D25*
X140000000Y-100000000D03*
D24*
X140000000Y-102400000D03*
X141697056Y-98302944D03*
X141697056Y-101697056D03*
X142400000Y-100000000D03*
%TD*%
%TO.P,H1,1,1*%
%TO.N,GND*%
X97600000Y-100000000D03*
X98302944Y-98302944D03*
X98302944Y-101697056D03*
X100000000Y-97600000D03*
D25*
X100000000Y-100000000D03*
D24*
X100000000Y-102400000D03*
X101697056Y-98302944D03*
X101697056Y-101697056D03*
X102400000Y-100000000D03*
%TD*%
D26*
%TO.P,D3,1,K*%
%TO.N,GND*%
X132000000Y-141875000D03*
%TO.P,D3,2,A*%
%TO.N,Net-(D3-A)*%
X132000000Y-140125000D03*
%TD*%
%TO.P,D2,1,K*%
%TO.N,GND*%
X135000000Y-141875000D03*
%TO.P,D2,2,A*%
%TO.N,Net-(D2-A)*%
X135000000Y-140125000D03*
%TD*%
D27*
%TO.P,D1,1,K*%
%TO.N,GND*%
X98125000Y-105000000D03*
%TO.P,D1,2,A*%
%TO.N,Net-(D1-A)*%
X99875000Y-105000000D03*
%TD*%
D28*
%TO.P,C5,1*%
%TO.N,/nRST*%
X113062500Y-121900000D03*
%TO.P,C5,2*%
%TO.N,GND*%
X111337500Y-121900000D03*
%TD*%
D29*
%TO.P,C4,1*%
%TO.N,+3.3V*%
X111400000Y-118537500D03*
%TO.P,C4,2*%
%TO.N,GND*%
X111400000Y-120262500D03*
%TD*%
%TO.P,C3,1*%
%TO.N,+3.3V*%
X113000000Y-118537500D03*
%TO.P,C3,2*%
%TO.N,GND*%
X113000000Y-120262500D03*
%TD*%
%TO.P,C2,1*%
%TO.N,+3.3V*%
X112300000Y-110137500D03*
%TO.P,C2,2*%
%TO.N,GND*%
X112300000Y-111862500D03*
%TD*%
%TO.P,C1,1*%
%TO.N,+5V*%
X105700000Y-110137500D03*
%TO.P,C1,2*%
%TO.N,GND*%
X105700000Y-111862500D03*
%TD*%
D30*
%TO.N,/nRST*%
X117460000Y-102950000D03*
X117500000Y-121200000D03*
%TO.N,GND*%
X135000000Y-141875000D03*
X132000000Y-141875000D03*
X111337500Y-121900000D03*
X113000000Y-120262500D03*
X111400000Y-120262500D03*
%TO.N,+3.3V*%
X111400000Y-118537500D03*
X113000000Y-118537500D03*
%TO.N,GND*%
X115825000Y-120400000D03*
%TO.N,+3.3V*%
X115825000Y-119600000D03*
X131000000Y-114187500D03*
X131000000Y-120312500D03*
X122540000Y-99050000D03*
%TO.N,GND*%
X117460000Y-99050000D03*
X121270000Y-99050000D03*
X120000000Y-99050000D03*
X98125000Y-105000000D03*
%TO.N,+3.3V*%
X103912500Y-105000000D03*
%TO.N,GND*%
X112300000Y-111862500D03*
%TO.N,+3.3V*%
X112300000Y-110137500D03*
X110350000Y-110050000D03*
%TO.N,+5V*%
X105700000Y-110137500D03*
%TO.N,GND*%
X105700000Y-111862500D03*
X107650000Y-111000000D03*
%TO.N,+5V*%
X107650000Y-111950000D03*
X107650000Y-110050000D03*
%TD*%
D31*
%TO.N,/ADC_IN1*%
X115825000Y-122800000D02*
X114900000Y-122800000D01*
X114900000Y-122800000D02*
X112700000Y-125000000D01*
X112700000Y-125000000D02*
X100000000Y-125000000D01*
%TO.N,/nRST*%
X117500000Y-121200000D02*
X115825000Y-121200000D01*
%TO.N,/TIM3_CH4*%
X122800000Y-124175000D02*
X122800000Y-125100000D01*
X122800000Y-125100000D02*
X131500000Y-133800000D01*
X131500000Y-133800000D02*
X133500000Y-133800000D01*
X133500000Y-133800000D02*
X135000000Y-135300000D01*
X135000000Y-135300000D02*
X135000000Y-136087500D01*
%TO.N,/TIM3_CH3*%
X132000000Y-136087500D02*
X132000000Y-136000000D01*
X132000000Y-136000000D02*
X122000000Y-126000000D01*
X122000000Y-126000000D02*
X122000000Y-124175000D01*
%TO.N,Net-(D3-A)*%
X132000000Y-137912500D02*
X132000000Y-140125000D01*
%TO.N,Net-(D2-A)*%
X135000000Y-137912500D02*
X135000000Y-140125000D01*
%TO.N,Net-(D1-A)*%
X102087500Y-105000000D02*
X99875000Y-105000000D01*
%TO.N,/ADC_IN0*%
X100000000Y-122500000D02*
X107400000Y-122500000D01*
X107400000Y-122500000D02*
X107900000Y-123000000D01*
X107900000Y-123000000D02*
X113700000Y-123000000D01*
X113700000Y-123000000D02*
X114700000Y-122000000D01*
X114700000Y-122000000D02*
X115825000Y-122000000D01*
%TO.N,/nRST*%
X115825000Y-121200000D02*
X114500000Y-121200000D01*
X114500000Y-121200000D02*
X113800000Y-121900000D01*
X113800000Y-121900000D02*
X113062500Y-121900000D01*
%TO.N,/VCP_RX*%
X118000000Y-115825000D02*
X118000000Y-110800000D01*
X118000000Y-110800000D02*
X114300000Y-107100000D01*
X114300000Y-107100000D02*
X114300000Y-99700000D01*
X114300000Y-99700000D02*
X114950000Y-99050000D01*
X114950000Y-99050000D02*
X116190000Y-99050000D01*
%TO.N,/VCP_TX*%
X118800000Y-115825000D02*
X118800000Y-108500000D01*
X118800000Y-108500000D02*
X116190000Y-105890000D01*
X116190000Y-105890000D02*
X116190000Y-102950000D01*
%TO.N,/SWDIO*%
X124175000Y-117200000D02*
X124175000Y-111775000D01*
X124175000Y-111775000D02*
X122540000Y-110140000D01*
X122540000Y-110140000D02*
X122540000Y-102950000D01*
%TO.N,/SWCLK*%
X121270000Y-102950000D02*
X121270000Y-111470000D01*
X121270000Y-111470000D02*
X122800000Y-113000000D01*
X122800000Y-113000000D02*
X122800000Y-115825000D01*
%TO.N,/I2C2_SCL*%
X128200000Y-118800000D02*
X128500000Y-118500000D01*
X128500000Y-118500000D02*
X140000000Y-118500000D01*
%TO.N,/I2C2_SDA*%
X124175000Y-118000000D02*
X126300000Y-118000000D01*
X128300000Y-116000000D02*
X140000000Y-116000000D01*
X126300000Y-118000000D02*
X128300000Y-116000000D01*
%TO.N,/I2C2_SCL*%
X124175000Y-118800000D02*
X128200000Y-118800000D01*
%TO.N,/SPI1_MOSI*%
X124500000Y-141000000D02*
X124500000Y-130200000D01*
X124500000Y-130200000D02*
X121200000Y-126900000D01*
X121200000Y-126900000D02*
X121200000Y-124175000D01*
%TO.N,/SPI1_MISO*%
X120400000Y-124175000D02*
X120400000Y-128900000D01*
X120400000Y-128900000D02*
X122000000Y-130500000D01*
X122000000Y-130500000D02*
X122000000Y-141000000D01*
%TO.N,/SPI1_NSS*%
X118800000Y-124175000D02*
X118800000Y-125900000D01*
X118800000Y-125900000D02*
X117000000Y-127700000D01*
X117000000Y-127700000D02*
X117000000Y-141000000D01*
%TO.N,/SPI1_SCK*%
X119600000Y-124175000D02*
X119600000Y-137300000D01*
X119600000Y-137300000D02*
X119500000Y-137400000D01*
X119500000Y-137400000D02*
X119500000Y-141000000D01*
%TO.N,GND*%
X111400000Y-120262500D02*
X113000000Y-120262500D01*
D32*
%TO.N,+3.3V*%
X113000000Y-118537500D02*
X111400000Y-118537500D01*
X115825000Y-119600000D02*
X114800000Y-119600000D01*
X114800000Y-119600000D02*
X113737500Y-118537500D01*
X113737500Y-118537500D02*
X113000000Y-118537500D01*
%TD*%
M02*
