%TF.GenerationSoftware,KiCad,Pcbnew,9.0.7*%
%TF.CreationDate,2026-02-11T09:42:11+01:00*%
%TF.ProjectId,3DN_td_kicad,33444e5f-7464-45f6-9b69-6361642e6b69,1.0*%
%TF.SameCoordinates,Original*%
%TF.FileFunction,Paste,Top*%
%TF.FilePolarity,Positive*%
%FSLAX46Y46*%
G04 Gerber Fmt 4.6, Leading zero omitted, Abs format (unit mm)*
G04 Created by KiCad (PCBNEW 9.0.7) date 2026-02-11 09:42:11*
%MOMM*%
%LPD*%
G01*
G04 APERTURE LIST*
G04 Aperture macros list*
%AMRoundRect*
0 Rectangle with rounded corners*
0 $1 Rounding radius*
0 $2 $3 $4 $5 $6 $7 $8 $9 X,Y pos of 4 corners*
0 Add a 4 corners polygon primitive as box body*
4,1,4,$2,$3,$4,$5,$6,$7,$8,$9,$2,$3,0*
0 Add four circle primitives for the rounded corners*
1,1,$1+$1,$2,$3*
1,1,$1+$1,$4,$5*
1,1,$1+$1,$6,$7*
1,1,$1+$1,$8,$9*
0 Add four rect primitives between the rounded corners*
20,1,$1+$1,$2,$3,$4,$5,0*
20,1,$1+$1,$4,$5,$6,$7,0*
20,1,$1+$1,$6,$7,$8,$9,0*
20,1,$1+$1,$8,$9,$2,$3,0*%
G04 Aperture macros list end*
%ADD10RoundRect,0.162500X-0.617500X-0.162500X0.617500X-0.162500X0.617500X0.162500X-0.617500X0.162500X0*%
%ADD11RoundRect,0.125000X-0.625000X-0.125000X0.625000X-0.125000X0.625000X0.125000X-0.625000X0.125000X0*%
%ADD12RoundRect,0.125000X-0.125000X-0.625000X0.125000X-0.625000X0.125000X0.625000X-0.125000X0.625000X0*%
%ADD13RoundRect,0.237500X-0.237500X0.250000X-0.237500X-0.250000X0.237500X-0.250000X0.237500X0.250000X0*%
%ADD14RoundRect,0.237500X0.250000X0.237500X-0.250000X0.237500X-0.250000X-0.237500X0.250000X-0.237500X0*%
%ADD15RoundRect,0.237500X0.237500X-0.250000X0.237500X0.250000X-0.237500X0.250000X-0.237500X-0.250000X0*%
%ADD16R,0.740000X2.400000*%
%ADD17RoundRect,0.237500X0.237500X-0.287500X0.237500X0.287500X-0.237500X0.287500X-0.237500X-0.287500X0*%
%ADD18RoundRect,0.237500X-0.287500X-0.237500X0.287500X-0.237500X0.287500X0.237500X-0.287500X0.237500X0*%
%ADD19RoundRect,0.237500X0.300000X0.237500X-0.300000X0.237500X-0.300000X-0.237500X0.300000X-0.237500X0*%
%ADD20RoundRect,0.237500X-0.237500X0.300000X-0.237500X-0.300000X0.237500X-0.300000X0.237500X0.300000X0*%
G04 APERTURE END LIST*
D10*
%TO.C,U2*%
X107650000Y-110050000D03*
X107650000Y-111000000D03*
X107650000Y-111950000D03*
X110350000Y-111950000D03*
X110350000Y-110050000D03*
%TD*%
D11*
%TO.C,U1*%
X115825000Y-117200000D03*
X115825000Y-118000000D03*
X115825000Y-118800000D03*
X115825000Y-119600000D03*
X115825000Y-120400000D03*
X115825000Y-121200000D03*
X115825000Y-122000000D03*
X115825000Y-122800000D03*
D12*
X117200000Y-124175000D03*
X118000000Y-124175000D03*
X118800000Y-124175000D03*
X119600000Y-124175000D03*
X120400000Y-124175000D03*
X121200000Y-124175000D03*
X122000000Y-124175000D03*
X122800000Y-124175000D03*
D11*
X124175000Y-122800000D03*
X124175000Y-122000000D03*
X124175000Y-121200000D03*
X124175000Y-120400000D03*
X124175000Y-119600000D03*
X124175000Y-118800000D03*
X124175000Y-118000000D03*
X124175000Y-117200000D03*
D12*
X122800000Y-115825000D03*
X122000000Y-115825000D03*
X121200000Y-115825000D03*
X120400000Y-115825000D03*
X119600000Y-115825000D03*
X118800000Y-115825000D03*
X118000000Y-115825000D03*
X117200000Y-115825000D03*
%TD*%
D13*
%TO.C,R5*%
X132000000Y-136087500D03*
X132000000Y-137912500D03*
%TD*%
%TO.C,R4*%
X135000000Y-136087500D03*
X135000000Y-137912500D03*
%TD*%
D14*
%TO.C,R3*%
X103912500Y-105000000D03*
X102087500Y-105000000D03*
%TD*%
D13*
%TO.C,R2*%
X131000000Y-114187500D03*
X131000000Y-116012500D03*
%TD*%
D15*
%TO.C,R1*%
X131000000Y-120312500D03*
X131000000Y-118487500D03*
%TD*%
D16*
%TO.C,J1*%
X123810000Y-99050000D03*
X123810000Y-102950000D03*
X122540000Y-99050000D03*
X122540000Y-102950000D03*
X121270000Y-99050000D03*
X121270000Y-102950000D03*
X120000000Y-99050000D03*
X120000000Y-102950000D03*
X118730000Y-99050000D03*
X118730000Y-102950000D03*
X117460000Y-99050000D03*
X117460000Y-102950000D03*
X116190000Y-99050000D03*
X116190000Y-102950000D03*
%TD*%
D17*
%TO.C,D3*%
X132000000Y-141875000D03*
X132000000Y-140125000D03*
%TD*%
%TO.C,D2*%
X135000000Y-141875000D03*
X135000000Y-140125000D03*
%TD*%
D18*
%TO.C,D1*%
X98125000Y-105000000D03*
X99875000Y-105000000D03*
%TD*%
D19*
%TO.C,C5*%
X113062500Y-121900000D03*
X111337500Y-121900000D03*
%TD*%
D20*
%TO.C,C4*%
X111400000Y-118537500D03*
X111400000Y-120262500D03*
%TD*%
%TO.C,C3*%
X113000000Y-118537500D03*
X113000000Y-120262500D03*
%TD*%
%TO.C,C2*%
X112300000Y-110137500D03*
X112300000Y-111862500D03*
%TD*%
%TO.C,C1*%
X105700000Y-110137500D03*
X105700000Y-111862500D03*
%TD*%
M02*
