%TF.GenerationSoftware,KiCad,Pcbnew,9.0.7*%
%TF.CreationDate,2026-02-11T09:42:11+01:00*%
%TF.ProjectId,3DN_td_kicad,33444e5f-7464-45f6-9b69-6361642e6b69,1.0*%
%TF.SameCoordinates,Original*%
%TF.FileFunction,Copper,L3,Inr*%
%TF.FilePolarity,Positive*%
%FSLAX46Y46*%
G04 Gerber Fmt 4.6, Leading zero omitted, Abs format (unit mm)*
G04 Created by KiCad (PCBNEW 9.0.7) date 2026-02-11 09:42:11*
%MOMM*%
%LPD*%
G01*
G04 APERTURE LIST*
G04 Aperture macros list*
%AMRoundRect*
0 Rectangle with rounded corners*
0 $1 Rounding radius*
0 $2 $3 $4 $5 $6 $7 $8 $9 X,Y pos of 4 corners*
0 Add a 4 corners polygon primitive as box body*
4,1,4,$2,$3,$4,$5,$6,$7,$8,$9,$2,$3,0*
0 Add four circle primitives for the rounded corners*
1,1,$1+$1,$2,$3*
1,1,$1+$1,$4,$5*
1,1,$1+$1,$6,$7*
1,1,$1+$1,$8,$9*
0 Add four rect primitives between the rounded corners*
20,1,$1+$1,$2,$3,$4,$5,0*
20,1,$1+$1,$4,$5,$6,$7,0*
20,1,$1+$1,$6,$7,$8,$9,0*
20,1,$1+$1,$8,$9,$2,$3,0*%
G04 Aperture macros list end*
%TA.AperFunction,ComponentPad*%
%ADD10RoundRect,0.250000X0.750000X-0.600000X0.750000X0.600000X-0.750000X0.600000X-0.750000X-0.600000X0*%
%TD*%
%TA.AperFunction,ComponentPad*%
%ADD11O,2.000000X1.700000*%
%TD*%
%TA.AperFunction,ComponentPad*%
%ADD12RoundRect,0.250000X-0.725000X0.600000X-0.725000X-0.600000X0.725000X-0.600000X0.725000X0.600000X0*%
%TD*%
%TA.AperFunction,ComponentPad*%
%ADD13O,1.950000X1.700000*%
%TD*%
%TA.AperFunction,ComponentPad*%
%ADD14RoundRect,0.250000X0.600000X0.725000X-0.600000X0.725000X-0.600000X-0.725000X0.600000X-0.725000X0*%
%TD*%
%TA.AperFunction,ComponentPad*%
%ADD15O,1.700000X1.950000*%
%TD*%
%TA.AperFunction,ComponentPad*%
%ADD16RoundRect,0.250000X0.725000X-0.600000X0.725000X0.600000X-0.725000X0.600000X-0.725000X-0.600000X0*%
%TD*%
%TA.AperFunction,ComponentPad*%
%ADD17C,0.800000*%
%TD*%
%TA.AperFunction,ComponentPad*%
%ADD18C,6.400000*%
%TD*%
%TA.AperFunction,ViaPad*%
%ADD19C,0.450000*%
%TD*%
G04 APERTURE END LIST*
D10*
%TO.N,GND*%
%TO.C,J5*%
X100000000Y-112500000D03*
D11*
%TO.N,+5V*%
X100000000Y-110000000D03*
%TD*%
D12*
%TO.N,GND*%
%TO.C,J4*%
X140000000Y-113500000D03*
D13*
%TO.N,/I2C2_SDA*%
X140000000Y-116000000D03*
%TO.N,/I2C2_SCL*%
X140000000Y-118500000D03*
%TO.N,+3.3V*%
X140000000Y-121000000D03*
%TD*%
D14*
%TO.N,GND*%
%TO.C,J3*%
X127000000Y-141000000D03*
D15*
%TO.N,/SPI1_MOSI*%
X124500000Y-141000000D03*
%TO.N,/SPI1_MISO*%
X122000000Y-141000000D03*
%TO.N,/SPI1_SCK*%
X119500000Y-141000000D03*
%TO.N,/SPI1_NSS*%
X117000000Y-141000000D03*
%TO.N,+3.3V*%
X114500000Y-141000000D03*
%TD*%
D16*
%TO.N,GND*%
%TO.C,J2*%
X100000000Y-127500000D03*
D13*
%TO.N,/ADC_IN1*%
X100000000Y-125000000D03*
%TO.N,/ADC_IN0*%
X100000000Y-122500000D03*
%TO.N,+3.3V*%
X100000000Y-120000000D03*
%TD*%
D17*
%TO.N,GND*%
%TO.C,H4*%
X137600000Y-140000000D03*
X138302944Y-138302944D03*
X138302944Y-141697056D03*
X140000000Y-137600000D03*
D18*
X140000000Y-140000000D03*
D17*
X140000000Y-142400000D03*
X141697056Y-138302944D03*
X141697056Y-141697056D03*
X142400000Y-140000000D03*
%TD*%
%TO.N,GND*%
%TO.C,H3*%
X97600000Y-140000000D03*
X98302944Y-138302944D03*
X98302944Y-141697056D03*
X100000000Y-137600000D03*
D18*
X100000000Y-140000000D03*
D17*
X100000000Y-142400000D03*
X101697056Y-138302944D03*
X101697056Y-141697056D03*
X102400000Y-140000000D03*
%TD*%
%TO.N,GND*%
%TO.C,H2*%
X137600000Y-100000000D03*
X138302944Y-98302944D03*
X138302944Y-101697056D03*
X140000000Y-97600000D03*
D18*
X140000000Y-100000000D03*
D17*
X140000000Y-102400000D03*
X141697056Y-98302944D03*
X141697056Y-101697056D03*
X142400000Y-100000000D03*
%TD*%
%TO.N,GND*%
%TO.C,H1*%
X97600000Y-100000000D03*
X98302944Y-98302944D03*
X98302944Y-101697056D03*
X100000000Y-97600000D03*
D18*
X100000000Y-100000000D03*
D17*
X100000000Y-102400000D03*
X101697056Y-98302944D03*
X101697056Y-101697056D03*
X102400000Y-100000000D03*
%TD*%
D19*
%TO.N,/nRST*%
X117460000Y-102950000D03*
X117500000Y-121200000D03*
%TO.N,GND*%
X135000000Y-141875000D03*
X132000000Y-141875000D03*
X111337500Y-121900000D03*
X113000000Y-120262500D03*
X111400000Y-120262500D03*
%TO.N,+3.3V*%
X111400000Y-118537500D03*
X113000000Y-118537500D03*
%TO.N,GND*%
X115825000Y-120400000D03*
%TO.N,+3.3V*%
X115825000Y-119600000D03*
X131000000Y-114187500D03*
X131000000Y-120312500D03*
X122540000Y-99050000D03*
%TO.N,GND*%
X117460000Y-99050000D03*
X121270000Y-99050000D03*
X120000000Y-99050000D03*
X98125000Y-105000000D03*
%TO.N,+3.3V*%
X103912500Y-105000000D03*
%TO.N,GND*%
X112300000Y-111862500D03*
%TO.N,+3.3V*%
X112300000Y-110137500D03*
X110350000Y-110050000D03*
%TO.N,+5V*%
X105700000Y-110137500D03*
%TO.N,GND*%
X105700000Y-111862500D03*
X107650000Y-111000000D03*
%TO.N,+5V*%
X107650000Y-111950000D03*
X107650000Y-110050000D03*
%TD*%
%TA.AperFunction,Conductor*%
%TO.N,+3.3V*%
G36*
X139053042Y-96520185D02*
G01*
X139098797Y-96572989D01*
X139108741Y-96642147D01*
X139079716Y-96705703D01*
X139021999Y-96743160D01*
X138952049Y-96764378D01*
X138853022Y-96794418D01*
X138544343Y-96922278D01*
X138544338Y-96922280D01*
X138249696Y-97079769D01*
X138249678Y-97079780D01*
X137971890Y-97265393D01*
X137971876Y-97265403D01*
X137713604Y-97477361D01*
X137477361Y-97713604D01*
X137265403Y-97971876D01*
X137265393Y-97971890D01*
X137079780Y-98249678D01*
X137079769Y-98249696D01*
X136922280Y-98544338D01*
X136922278Y-98544343D01*
X136794418Y-98853022D01*
X136697428Y-99172758D01*
X136697425Y-99172769D01*
X136632250Y-99500434D01*
X136632247Y-99500451D01*
X136599500Y-99832947D01*
X136599500Y-100167052D01*
X136632247Y-100499548D01*
X136632250Y-100499565D01*
X136697425Y-100827230D01*
X136697428Y-100827241D01*
X136794418Y-101146977D01*
X136922278Y-101455656D01*
X136922280Y-101455661D01*
X137079769Y-101750303D01*
X137079780Y-101750321D01*
X137265393Y-102028109D01*
X137265403Y-102028123D01*
X137477361Y-102286395D01*
X137713604Y-102522638D01*
X137713609Y-102522642D01*
X137713610Y-102522643D01*
X137971882Y-102734601D01*
X138249685Y-102920224D01*
X138249694Y-102920229D01*
X138249696Y-102920230D01*
X138544338Y-103077719D01*
X138544340Y-103077719D01*
X138544346Y-103077723D01*
X138853024Y-103205582D01*
X139172749Y-103302569D01*
X139172755Y-103302570D01*
X139172758Y-103302571D01*
X139172769Y-103302574D01*
X139378243Y-103343444D01*
X139500441Y-103367751D01*
X139832944Y-103400500D01*
X139832947Y-103400500D01*
X140167053Y-103400500D01*
X140167056Y-103400500D01*
X140499559Y-103367751D01*
X140661757Y-103335487D01*
X140827230Y-103302574D01*
X140827241Y-103302571D01*
X140827241Y-103302570D01*
X140827251Y-103302569D01*
X141146976Y-103205582D01*
X141455654Y-103077723D01*
X141750315Y-102920224D01*
X142028118Y-102734601D01*
X142286390Y-102522643D01*
X142522643Y-102286390D01*
X142734601Y-102028118D01*
X142920224Y-101750315D01*
X143077723Y-101455654D01*
X143205582Y-101146976D01*
X143256840Y-100977998D01*
X143295137Y-100919562D01*
X143358949Y-100891106D01*
X143428016Y-100901666D01*
X143480409Y-100947890D01*
X143499500Y-101013996D01*
X143499500Y-138986003D01*
X143479815Y-139053042D01*
X143427011Y-139098797D01*
X143357853Y-139108741D01*
X143294297Y-139079716D01*
X143256839Y-139021998D01*
X143245920Y-138986003D01*
X143205582Y-138853024D01*
X143077723Y-138544346D01*
X142920224Y-138249685D01*
X142734601Y-137971882D01*
X142522643Y-137713610D01*
X142522642Y-137713609D01*
X142522638Y-137713604D01*
X142286395Y-137477361D01*
X142028123Y-137265403D01*
X142028122Y-137265402D01*
X142028118Y-137265399D01*
X141750315Y-137079776D01*
X141750310Y-137079773D01*
X141750303Y-137079769D01*
X141455661Y-136922280D01*
X141455656Y-136922278D01*
X141146977Y-136794418D01*
X140827241Y-136697428D01*
X140827230Y-136697425D01*
X140499565Y-136632250D01*
X140499548Y-136632247D01*
X140248108Y-136607483D01*
X140167056Y-136599500D01*
X139832944Y-136599500D01*
X139757982Y-136606883D01*
X139500451Y-136632247D01*
X139500434Y-136632250D01*
X139172769Y-136697425D01*
X139172758Y-136697428D01*
X138853022Y-136794418D01*
X138544343Y-136922278D01*
X138544338Y-136922280D01*
X138249696Y-137079769D01*
X138249678Y-137079780D01*
X137971890Y-137265393D01*
X137971876Y-137265403D01*
X137713604Y-137477361D01*
X137477361Y-137713604D01*
X137265403Y-137971876D01*
X137265393Y-137971890D01*
X137079780Y-138249678D01*
X137079769Y-138249696D01*
X136922280Y-138544338D01*
X136922278Y-138544343D01*
X136794418Y-138853022D01*
X136697428Y-139172758D01*
X136697425Y-139172769D01*
X136632250Y-139500434D01*
X136632247Y-139500451D01*
X136610587Y-139720379D01*
X136599500Y-139832944D01*
X136599500Y-140167056D01*
X136604787Y-140220734D01*
X136632247Y-140499548D01*
X136632250Y-140499565D01*
X136697425Y-140827230D01*
X136697428Y-140827241D01*
X136794418Y-141146977D01*
X136922278Y-141455656D01*
X136922280Y-141455661D01*
X137079769Y-141750303D01*
X137079780Y-141750321D01*
X137265393Y-142028109D01*
X137265403Y-142028123D01*
X137477361Y-142286395D01*
X137713604Y-142522638D01*
X137713609Y-142522642D01*
X137713610Y-142522643D01*
X137971882Y-142734601D01*
X138249685Y-142920224D01*
X138249694Y-142920229D01*
X138249696Y-142920230D01*
X138544338Y-143077719D01*
X138544340Y-143077719D01*
X138544346Y-143077723D01*
X138853024Y-143205582D01*
X139021999Y-143256839D01*
X139080437Y-143295137D01*
X139108893Y-143358949D01*
X139098333Y-143428016D01*
X139052109Y-143480409D01*
X138986003Y-143499500D01*
X101013997Y-143499500D01*
X100946958Y-143479815D01*
X100901203Y-143427011D01*
X100891259Y-143357853D01*
X100920284Y-143294297D01*
X100978000Y-143256839D01*
X101146976Y-143205582D01*
X101455654Y-143077723D01*
X101750315Y-142920224D01*
X102028118Y-142734601D01*
X102286390Y-142522643D01*
X102522643Y-142286390D01*
X102734601Y-142028118D01*
X102920224Y-141750315D01*
X103077723Y-141455654D01*
X103205582Y-141146976D01*
X103302569Y-140827251D01*
X103302573Y-140827233D01*
X103315376Y-140762871D01*
X103315376Y-140762870D01*
X103317936Y-140750000D01*
X113152970Y-140750000D01*
X114095854Y-140750000D01*
X114057370Y-140816657D01*
X114025000Y-140937465D01*
X114025000Y-141062535D01*
X114057370Y-141183343D01*
X114095854Y-141250000D01*
X113152970Y-141250000D01*
X113183242Y-141441127D01*
X113183242Y-141441130D01*
X113248904Y-141643217D01*
X113345379Y-141832557D01*
X113470272Y-142004459D01*
X113470276Y-142004464D01*
X113620535Y-142154723D01*
X113620540Y-142154727D01*
X113792442Y-142279620D01*
X113981782Y-142376095D01*
X114183871Y-142441757D01*
X114250000Y-142452231D01*
X114250000Y-141404145D01*
X114316657Y-141442630D01*
X114437465Y-141475000D01*
X114562535Y-141475000D01*
X114683343Y-141442630D01*
X114750000Y-141404145D01*
X114750000Y-142452230D01*
X114816126Y-142441757D01*
X114816129Y-142441757D01*
X115018217Y-142376095D01*
X115207557Y-142279620D01*
X115379459Y-142154727D01*
X115379464Y-142154723D01*
X115529723Y-142004464D01*
X115529727Y-142004459D01*
X115654620Y-141832557D01*
X115751095Y-141643217D01*
X115790759Y-141521144D01*
X115830196Y-141463469D01*
X115894555Y-141436270D01*
X115963401Y-141448184D01*
X116014877Y-141495428D01*
X116023251Y-141512009D01*
X116069057Y-141622596D01*
X116184024Y-141794657D01*
X116330342Y-141940975D01*
X116330345Y-141940977D01*
X116502402Y-142055941D01*
X116693580Y-142135130D01*
X116882187Y-142172646D01*
X116896530Y-142175499D01*
X116896534Y-142175500D01*
X116896535Y-142175500D01*
X117103466Y-142175500D01*
X117103467Y-142175499D01*
X117306420Y-142135130D01*
X117497598Y-142055941D01*
X117669655Y-141940977D01*
X117815977Y-141794655D01*
X117930941Y-141622598D01*
X118010130Y-141431420D01*
X118050500Y-141228465D01*
X118050500Y-140771535D01*
X118050499Y-140771530D01*
X118449500Y-140771530D01*
X118449500Y-141228469D01*
X118489868Y-141431412D01*
X118489870Y-141431420D01*
X118565388Y-141613737D01*
X118569059Y-141622598D01*
X118626541Y-141708626D01*
X118684024Y-141794657D01*
X118830342Y-141940975D01*
X118830345Y-141940977D01*
X119002402Y-142055941D01*
X119193580Y-142135130D01*
X119382187Y-142172646D01*
X119396530Y-142175499D01*
X119396534Y-142175500D01*
X119396535Y-142175500D01*
X119603466Y-142175500D01*
X119603467Y-142175499D01*
X119806420Y-142135130D01*
X119997598Y-142055941D01*
X120169655Y-141940977D01*
X120315977Y-141794655D01*
X120430941Y-141622598D01*
X120510130Y-141431420D01*
X120550500Y-141228465D01*
X120550500Y-140771535D01*
X120550499Y-140771530D01*
X120949500Y-140771530D01*
X120949500Y-141228469D01*
X120989868Y-141431412D01*
X120989870Y-141431420D01*
X121065388Y-141613737D01*
X121069059Y-141622598D01*
X121126541Y-141708626D01*
X121184024Y-141794657D01*
X121330342Y-141940975D01*
X121330345Y-141940977D01*
X121502402Y-142055941D01*
X121693580Y-142135130D01*
X121882187Y-142172646D01*
X121896530Y-142175499D01*
X121896534Y-142175500D01*
X121896535Y-142175500D01*
X122103466Y-142175500D01*
X122103467Y-142175499D01*
X122306420Y-142135130D01*
X122497598Y-142055941D01*
X122669655Y-141940977D01*
X122815977Y-141794655D01*
X122930941Y-141622598D01*
X123010130Y-141431420D01*
X123050500Y-141228465D01*
X123050500Y-140771535D01*
X123050499Y-140771530D01*
X123449500Y-140771530D01*
X123449500Y-141228469D01*
X123489868Y-141431412D01*
X123489870Y-141431420D01*
X123565388Y-141613737D01*
X123569059Y-141622598D01*
X123626541Y-141708626D01*
X123684024Y-141794657D01*
X123830342Y-141940975D01*
X123830345Y-141940977D01*
X124002402Y-142055941D01*
X124193580Y-142135130D01*
X124382187Y-142172646D01*
X124396530Y-142175499D01*
X124396534Y-142175500D01*
X124396535Y-142175500D01*
X124603466Y-142175500D01*
X124603467Y-142175499D01*
X124806420Y-142135130D01*
X124997598Y-142055941D01*
X125169655Y-141940977D01*
X125315977Y-141794655D01*
X125430941Y-141622598D01*
X125510130Y-141431420D01*
X125550500Y-141228465D01*
X125550500Y-140771535D01*
X125510130Y-140568580D01*
X125430941Y-140377402D01*
X125370353Y-140286725D01*
X125370352Y-140286722D01*
X125326257Y-140220730D01*
X125949500Y-140220730D01*
X125949500Y-141779269D01*
X125952353Y-141809699D01*
X125952353Y-141809701D01*
X125994805Y-141931018D01*
X125997207Y-141937882D01*
X126077850Y-142047150D01*
X126187118Y-142127793D01*
X126208089Y-142135131D01*
X126315299Y-142172646D01*
X126345730Y-142175500D01*
X126345734Y-142175500D01*
X127654270Y-142175500D01*
X127684699Y-142172646D01*
X127684701Y-142172646D01*
X127748790Y-142150219D01*
X127812882Y-142127793D01*
X127922150Y-142047150D01*
X128002793Y-141937882D01*
X128039648Y-141832557D01*
X128044398Y-141818982D01*
X131574500Y-141818982D01*
X131574500Y-141931018D01*
X131600516Y-142028109D01*
X131603497Y-142039236D01*
X131603498Y-142039239D01*
X131613141Y-142055941D01*
X131659515Y-142136263D01*
X131738737Y-142215485D01*
X131835763Y-142271503D01*
X131943982Y-142300500D01*
X131943984Y-142300500D01*
X132056016Y-142300500D01*
X132056018Y-142300500D01*
X132164237Y-142271503D01*
X132261263Y-142215485D01*
X132340485Y-142136263D01*
X132396503Y-142039237D01*
X132425500Y-141931018D01*
X132425500Y-141818982D01*
X134574500Y-141818982D01*
X134574500Y-141931018D01*
X134600516Y-142028109D01*
X134603497Y-142039236D01*
X134603498Y-142039239D01*
X134613141Y-142055941D01*
X134659515Y-142136263D01*
X134738737Y-142215485D01*
X134835763Y-142271503D01*
X134943982Y-142300500D01*
X134943984Y-142300500D01*
X135056016Y-142300500D01*
X135056018Y-142300500D01*
X135164237Y-142271503D01*
X135261263Y-142215485D01*
X135340485Y-142136263D01*
X135396503Y-142039237D01*
X135425500Y-141931018D01*
X135425500Y-141818982D01*
X135396503Y-141710763D01*
X135340485Y-141613737D01*
X135261263Y-141534515D01*
X135164237Y-141478497D01*
X135056018Y-141449500D01*
X134943982Y-141449500D01*
X134835763Y-141478497D01*
X134835760Y-141478498D01*
X134738740Y-141534513D01*
X134738734Y-141534517D01*
X134659517Y-141613734D01*
X134659513Y-141613740D01*
X134603498Y-141710760D01*
X134603497Y-141710763D01*
X134574500Y-141818982D01*
X132425500Y-141818982D01*
X132396503Y-141710763D01*
X132340485Y-141613737D01*
X132261263Y-141534515D01*
X132164237Y-141478497D01*
X132056018Y-141449500D01*
X131943982Y-141449500D01*
X131835763Y-141478497D01*
X131835760Y-141478498D01*
X131738740Y-141534513D01*
X131738734Y-141534517D01*
X131659517Y-141613734D01*
X131659513Y-141613740D01*
X131603498Y-141710760D01*
X131603497Y-141710763D01*
X131574500Y-141818982D01*
X128044398Y-141818982D01*
X128047646Y-141809701D01*
X128047646Y-141809699D01*
X128048624Y-141799276D01*
X128048624Y-141799275D01*
X128050500Y-141779271D01*
X128050500Y-140220730D01*
X128047646Y-140190300D01*
X128047646Y-140190298D01*
X128002793Y-140062119D01*
X128002792Y-140062117D01*
X127922150Y-139952850D01*
X127812882Y-139872207D01*
X127812880Y-139872206D01*
X127684700Y-139827353D01*
X127654270Y-139824500D01*
X127654266Y-139824500D01*
X126345734Y-139824500D01*
X126345730Y-139824500D01*
X126315300Y-139827353D01*
X126315298Y-139827353D01*
X126187119Y-139872206D01*
X126187117Y-139872207D01*
X126077850Y-139952850D01*
X125997207Y-140062117D01*
X125997206Y-140062119D01*
X125952353Y-140190298D01*
X125952353Y-140190300D01*
X125949500Y-140220730D01*
X125326257Y-140220730D01*
X125315980Y-140205349D01*
X125315974Y-140205341D01*
X125169657Y-140059024D01*
X125074638Y-139995535D01*
X124997598Y-139944059D01*
X124973574Y-139934108D01*
X124806420Y-139864870D01*
X124806412Y-139864868D01*
X124603469Y-139824500D01*
X124603465Y-139824500D01*
X124396535Y-139824500D01*
X124396530Y-139824500D01*
X124193587Y-139864868D01*
X124193579Y-139864870D01*
X124002403Y-139944058D01*
X123830342Y-140059024D01*
X123684024Y-140205342D01*
X123569058Y-140377403D01*
X123489870Y-140568579D01*
X123489868Y-140568587D01*
X123449500Y-140771530D01*
X123050499Y-140771530D01*
X123010130Y-140568580D01*
X122930941Y-140377402D01*
X122815977Y-140205345D01*
X122815975Y-140205342D01*
X122669657Y-140059024D01*
X122574638Y-139995535D01*
X122497598Y-139944059D01*
X122473574Y-139934108D01*
X122306420Y-139864870D01*
X122306412Y-139864868D01*
X122103469Y-139824500D01*
X122103465Y-139824500D01*
X121896535Y-139824500D01*
X121896530Y-139824500D01*
X121693587Y-139864868D01*
X121693579Y-139864870D01*
X121502403Y-139944058D01*
X121330342Y-140059024D01*
X121184024Y-140205342D01*
X121069058Y-140377403D01*
X120989870Y-140568579D01*
X120989868Y-140568587D01*
X120949500Y-140771530D01*
X120550499Y-140771530D01*
X120510130Y-140568580D01*
X120430941Y-140377402D01*
X120315977Y-140205345D01*
X120315975Y-140205342D01*
X120169657Y-140059024D01*
X120074638Y-139995535D01*
X119997598Y-139944059D01*
X119973574Y-139934108D01*
X119806420Y-139864870D01*
X119806412Y-139864868D01*
X119603469Y-139824500D01*
X119603465Y-139824500D01*
X119396535Y-139824500D01*
X119396530Y-139824500D01*
X119193587Y-139864868D01*
X119193579Y-139864870D01*
X119002403Y-139944058D01*
X118830342Y-140059024D01*
X118684024Y-140205342D01*
X118569058Y-140377403D01*
X118489870Y-140568579D01*
X118489868Y-140568587D01*
X118449500Y-140771530D01*
X118050499Y-140771530D01*
X118010130Y-140568580D01*
X117930941Y-140377402D01*
X117815977Y-140205345D01*
X117815975Y-140205342D01*
X117669657Y-140059024D01*
X117574638Y-139995535D01*
X117497598Y-139944059D01*
X117473574Y-139934108D01*
X117306420Y-139864870D01*
X117306412Y-139864868D01*
X117103469Y-139824500D01*
X117103465Y-139824500D01*
X116896535Y-139824500D01*
X116896530Y-139824500D01*
X116693587Y-139864868D01*
X116693579Y-139864870D01*
X116502403Y-139944058D01*
X116330342Y-140059024D01*
X116184024Y-140205342D01*
X116069057Y-140377404D01*
X116023251Y-140487990D01*
X115979409Y-140542394D01*
X115913115Y-140564458D01*
X115845416Y-140547178D01*
X115797806Y-140496041D01*
X115790759Y-140478855D01*
X115751095Y-140356782D01*
X115654620Y-140167442D01*
X115529727Y-139995540D01*
X115529723Y-139995535D01*
X115379464Y-139845276D01*
X115379459Y-139845272D01*
X115207557Y-139720379D01*
X115018215Y-139623903D01*
X114816124Y-139558241D01*
X114750000Y-139547768D01*
X114750000Y-140595854D01*
X114683343Y-140557370D01*
X114562535Y-140525000D01*
X114437465Y-140525000D01*
X114316657Y-140557370D01*
X114250000Y-140595854D01*
X114250000Y-139547768D01*
X114249999Y-139547768D01*
X114183875Y-139558241D01*
X113981784Y-139623903D01*
X113792442Y-139720379D01*
X113620540Y-139845272D01*
X113620535Y-139845276D01*
X113470276Y-139995535D01*
X113470272Y-139995540D01*
X113345379Y-140167442D01*
X113248904Y-140356782D01*
X113183242Y-140558869D01*
X113183242Y-140558872D01*
X113152970Y-140750000D01*
X103317936Y-140750000D01*
X103354020Y-140568587D01*
X103367751Y-140499559D01*
X103400500Y-140167056D01*
X103400500Y-139832944D01*
X103367751Y-139500441D01*
X103343444Y-139378243D01*
X103302574Y-139172769D01*
X103302571Y-139172758D01*
X103302570Y-139172755D01*
X103302569Y-139172749D01*
X103205582Y-138853024D01*
X103077723Y-138544346D01*
X102920224Y-138249685D01*
X102734601Y-137971882D01*
X102522643Y-137713610D01*
X102522642Y-137713609D01*
X102522638Y-137713604D01*
X102286395Y-137477361D01*
X102028123Y-137265403D01*
X102028122Y-137265402D01*
X102028118Y-137265399D01*
X101750315Y-137079776D01*
X101750310Y-137079773D01*
X101750303Y-137079769D01*
X101455661Y-136922280D01*
X101455656Y-136922278D01*
X101146977Y-136794418D01*
X100827241Y-136697428D01*
X100827230Y-136697425D01*
X100499565Y-136632250D01*
X100499548Y-136632247D01*
X100248108Y-136607483D01*
X100167056Y-136599500D01*
X99832944Y-136599500D01*
X99757982Y-136606883D01*
X99500451Y-136632247D01*
X99500434Y-136632250D01*
X99172769Y-136697425D01*
X99172758Y-136697428D01*
X98853022Y-136794418D01*
X98544343Y-136922278D01*
X98544338Y-136922280D01*
X98249696Y-137079769D01*
X98249678Y-137079780D01*
X97971890Y-137265393D01*
X97971876Y-137265403D01*
X97713604Y-137477361D01*
X97477361Y-137713604D01*
X97265403Y-137971876D01*
X97265393Y-137971890D01*
X97079780Y-138249678D01*
X97079769Y-138249696D01*
X96922280Y-138544338D01*
X96922278Y-138544343D01*
X96794418Y-138853022D01*
X96764378Y-138952049D01*
X96754080Y-138986003D01*
X96743161Y-139021998D01*
X96704863Y-139080437D01*
X96641051Y-139108893D01*
X96571984Y-139098333D01*
X96519591Y-139052109D01*
X96500500Y-138986003D01*
X96500500Y-126845730D01*
X98824500Y-126845730D01*
X98824500Y-128154269D01*
X98827353Y-128184699D01*
X98827353Y-128184701D01*
X98872206Y-128312880D01*
X98872207Y-128312882D01*
X98952850Y-128422150D01*
X99062118Y-128502793D01*
X99104845Y-128517744D01*
X99190299Y-128547646D01*
X99220730Y-128550500D01*
X99220734Y-128550500D01*
X100779270Y-128550500D01*
X100809699Y-128547646D01*
X100809701Y-128547646D01*
X100873790Y-128525219D01*
X100937882Y-128502793D01*
X101047150Y-128422150D01*
X101127793Y-128312882D01*
X101150219Y-128248790D01*
X101172646Y-128184701D01*
X101172646Y-128184699D01*
X101175500Y-128154269D01*
X101175500Y-126845730D01*
X101172646Y-126815300D01*
X101172646Y-126815298D01*
X101127793Y-126687119D01*
X101127792Y-126687117D01*
X101047150Y-126577850D01*
X100937882Y-126497207D01*
X100937880Y-126497206D01*
X100809700Y-126452353D01*
X100779270Y-126449500D01*
X100779266Y-126449500D01*
X99220734Y-126449500D01*
X99220730Y-126449500D01*
X99190300Y-126452353D01*
X99190298Y-126452353D01*
X99062119Y-126497206D01*
X99062117Y-126497207D01*
X98952850Y-126577850D01*
X98872207Y-126687117D01*
X98872206Y-126687119D01*
X98827353Y-126815298D01*
X98827353Y-126815300D01*
X98824500Y-126845730D01*
X96500500Y-126845730D01*
X96500500Y-124896530D01*
X98824500Y-124896530D01*
X98824500Y-125103469D01*
X98864868Y-125306412D01*
X98864870Y-125306420D01*
X98944058Y-125497596D01*
X99059024Y-125669657D01*
X99205342Y-125815975D01*
X99205345Y-125815977D01*
X99377402Y-125930941D01*
X99568580Y-126010130D01*
X99771530Y-126050499D01*
X99771534Y-126050500D01*
X99771535Y-126050500D01*
X100228466Y-126050500D01*
X100228467Y-126050499D01*
X100431420Y-126010130D01*
X100622598Y-125930941D01*
X100794655Y-125815977D01*
X100940977Y-125669655D01*
X101055941Y-125497598D01*
X101135130Y-125306420D01*
X101175500Y-125103465D01*
X101175500Y-124896535D01*
X101135130Y-124693580D01*
X101055941Y-124502402D01*
X100940977Y-124330345D01*
X100940975Y-124330342D01*
X100794657Y-124184024D01*
X100708626Y-124126541D01*
X100622598Y-124069059D01*
X100431420Y-123989870D01*
X100431412Y-123989868D01*
X100228469Y-123949500D01*
X100228465Y-123949500D01*
X99771535Y-123949500D01*
X99771530Y-123949500D01*
X99568587Y-123989868D01*
X99568579Y-123989870D01*
X99377403Y-124069058D01*
X99205342Y-124184024D01*
X99059024Y-124330342D01*
X98944058Y-124502403D01*
X98864870Y-124693579D01*
X98864868Y-124693587D01*
X98824500Y-124896530D01*
X96500500Y-124896530D01*
X96500500Y-119750000D01*
X98547769Y-119750000D01*
X99595854Y-119750000D01*
X99557370Y-119816657D01*
X99525000Y-119937465D01*
X99525000Y-120062535D01*
X99557370Y-120183343D01*
X99595854Y-120250000D01*
X98547769Y-120250000D01*
X98558242Y-120316126D01*
X98558242Y-120316129D01*
X98623904Y-120518217D01*
X98720379Y-120707557D01*
X98845272Y-120879459D01*
X98845276Y-120879464D01*
X98995535Y-121029723D01*
X98995540Y-121029727D01*
X99167442Y-121154620D01*
X99356782Y-121251095D01*
X99478855Y-121290759D01*
X99536530Y-121330196D01*
X99563729Y-121394555D01*
X99551815Y-121463401D01*
X99504570Y-121514877D01*
X99487990Y-121523251D01*
X99377404Y-121569057D01*
X99205342Y-121684024D01*
X99059024Y-121830342D01*
X98944058Y-122002403D01*
X98864870Y-122193579D01*
X98864868Y-122193587D01*
X98824500Y-122396530D01*
X98824500Y-122603469D01*
X98864868Y-122806412D01*
X98864870Y-122806420D01*
X98944058Y-122997596D01*
X99059024Y-123169657D01*
X99205342Y-123315975D01*
X99205345Y-123315977D01*
X99377402Y-123430941D01*
X99568580Y-123510130D01*
X99771530Y-123550499D01*
X99771534Y-123550500D01*
X99771535Y-123550500D01*
X100228466Y-123550500D01*
X100228467Y-123550499D01*
X100431420Y-123510130D01*
X100622598Y-123430941D01*
X100794655Y-123315977D01*
X100940977Y-123169655D01*
X101055941Y-122997598D01*
X101135130Y-122806420D01*
X101175500Y-122603465D01*
X101175500Y-122396535D01*
X101135130Y-122193580D01*
X101055941Y-122002402D01*
X100950089Y-121843982D01*
X110912000Y-121843982D01*
X110912000Y-121956018D01*
X110940997Y-122064237D01*
X110997015Y-122161263D01*
X111076237Y-122240485D01*
X111173263Y-122296503D01*
X111281482Y-122325500D01*
X111281484Y-122325500D01*
X111393516Y-122325500D01*
X111393518Y-122325500D01*
X111501737Y-122296503D01*
X111598763Y-122240485D01*
X111677985Y-122161263D01*
X111734003Y-122064237D01*
X111763000Y-121956018D01*
X111763000Y-121843982D01*
X111734003Y-121735763D01*
X111677985Y-121638737D01*
X111598763Y-121559515D01*
X111501737Y-121503497D01*
X111393518Y-121474500D01*
X111281482Y-121474500D01*
X111173263Y-121503497D01*
X111173260Y-121503498D01*
X111076240Y-121559513D01*
X111076234Y-121559517D01*
X110997017Y-121638734D01*
X110997013Y-121638740D01*
X110940998Y-121735760D01*
X110940997Y-121735763D01*
X110912000Y-121843982D01*
X100950089Y-121843982D01*
X100940977Y-121830345D01*
X100940975Y-121830342D01*
X100794657Y-121684024D01*
X100622596Y-121569057D01*
X100512009Y-121523251D01*
X100457606Y-121479410D01*
X100435541Y-121413116D01*
X100452820Y-121345416D01*
X100503958Y-121297806D01*
X100521144Y-121290759D01*
X100643217Y-121251095D01*
X100832557Y-121154620D01*
X100847199Y-121143982D01*
X117074500Y-121143982D01*
X117074500Y-121256018D01*
X117103497Y-121364237D01*
X117159515Y-121461263D01*
X117238737Y-121540485D01*
X117335763Y-121596503D01*
X117443982Y-121625500D01*
X117443984Y-121625500D01*
X117556016Y-121625500D01*
X117556018Y-121625500D01*
X117664237Y-121596503D01*
X117761263Y-121540485D01*
X117840485Y-121461263D01*
X117896503Y-121364237D01*
X117925500Y-121256018D01*
X117925500Y-121143982D01*
X117896503Y-121035763D01*
X117840485Y-120938737D01*
X117761263Y-120859515D01*
X117664237Y-120803497D01*
X117556018Y-120774500D01*
X117443982Y-120774500D01*
X117335763Y-120803497D01*
X117335760Y-120803498D01*
X117238740Y-120859513D01*
X117238734Y-120859517D01*
X117159517Y-120938734D01*
X117159513Y-120938740D01*
X117103498Y-121035760D01*
X117103497Y-121035763D01*
X117074500Y-121143982D01*
X100847199Y-121143982D01*
X100996464Y-121035537D01*
X100996464Y-121035536D01*
X101004457Y-121029729D01*
X101004464Y-121029723D01*
X101154723Y-120879464D01*
X101154727Y-120879459D01*
X101279620Y-120707557D01*
X101376095Y-120518217D01*
X101441757Y-120316129D01*
X101441757Y-120316126D01*
X101452231Y-120250000D01*
X100404146Y-120250000D01*
X100429271Y-120206482D01*
X110974500Y-120206482D01*
X110974500Y-120318518D01*
X111003497Y-120426737D01*
X111059515Y-120523763D01*
X111138737Y-120602985D01*
X111235763Y-120659003D01*
X111343982Y-120688000D01*
X111343984Y-120688000D01*
X111456016Y-120688000D01*
X111456018Y-120688000D01*
X111564237Y-120659003D01*
X111661263Y-120602985D01*
X111740485Y-120523763D01*
X111796503Y-120426737D01*
X111825500Y-120318518D01*
X111825500Y-120206482D01*
X112574500Y-120206482D01*
X112574500Y-120318518D01*
X112603497Y-120426737D01*
X112659515Y-120523763D01*
X112738737Y-120602985D01*
X112835763Y-120659003D01*
X112943982Y-120688000D01*
X112943984Y-120688000D01*
X113056016Y-120688000D01*
X113056018Y-120688000D01*
X113164237Y-120659003D01*
X113261263Y-120602985D01*
X113340485Y-120523763D01*
X113396503Y-120426737D01*
X113418677Y-120343982D01*
X115399500Y-120343982D01*
X115399500Y-120456018D01*
X115428497Y-120564237D01*
X115484515Y-120661263D01*
X115563737Y-120740485D01*
X115660763Y-120796503D01*
X115768982Y-120825500D01*
X115768984Y-120825500D01*
X115881016Y-120825500D01*
X115881018Y-120825500D01*
X115989237Y-120796503D01*
X116069783Y-120750000D01*
X138547769Y-120750000D01*
X139595854Y-120750000D01*
X139557370Y-120816657D01*
X139525000Y-120937465D01*
X139525000Y-121062535D01*
X139557370Y-121183343D01*
X139595854Y-121250000D01*
X138547769Y-121250000D01*
X138558242Y-121316126D01*
X138558242Y-121316129D01*
X138623904Y-121518217D01*
X138720379Y-121707557D01*
X138845272Y-121879459D01*
X138845276Y-121879464D01*
X138995535Y-122029723D01*
X138995540Y-122029727D01*
X139167442Y-122154620D01*
X139356782Y-122251095D01*
X139558872Y-122316757D01*
X139750000Y-122347029D01*
X139750000Y-121404145D01*
X139816657Y-121442630D01*
X139937465Y-121475000D01*
X140062535Y-121475000D01*
X140183343Y-121442630D01*
X140250000Y-121404145D01*
X140250000Y-122347028D01*
X140441127Y-122316757D01*
X140643217Y-122251095D01*
X140832557Y-122154620D01*
X141004459Y-122029727D01*
X141004464Y-122029723D01*
X141154723Y-121879464D01*
X141154727Y-121879459D01*
X141279620Y-121707557D01*
X141376095Y-121518217D01*
X141441757Y-121316129D01*
X141441757Y-121316126D01*
X141452231Y-121250000D01*
X140404146Y-121250000D01*
X140442630Y-121183343D01*
X140475000Y-121062535D01*
X140475000Y-120937465D01*
X140442630Y-120816657D01*
X140404146Y-120750000D01*
X141452231Y-120750000D01*
X141441757Y-120683873D01*
X141441757Y-120683870D01*
X141376095Y-120481782D01*
X141279620Y-120292442D01*
X141154727Y-120120540D01*
X141154723Y-120120535D01*
X141004464Y-119970276D01*
X141004459Y-119970272D01*
X140832557Y-119845379D01*
X140643216Y-119748904D01*
X140521144Y-119709240D01*
X140463468Y-119669802D01*
X140436270Y-119605444D01*
X140448185Y-119536597D01*
X140495429Y-119485122D01*
X140512006Y-119476749D01*
X140622598Y-119430941D01*
X140794655Y-119315977D01*
X140940977Y-119169655D01*
X141055941Y-118997598D01*
X141135130Y-118806420D01*
X141175500Y-118603465D01*
X141175500Y-118396535D01*
X141135130Y-118193580D01*
X141055941Y-118002402D01*
X140940977Y-117830345D01*
X140940975Y-117830342D01*
X140794657Y-117684024D01*
X140708626Y-117626541D01*
X140622598Y-117569059D01*
X140431420Y-117489870D01*
X140431412Y-117489868D01*
X140228469Y-117449500D01*
X140228465Y-117449500D01*
X139771535Y-117449500D01*
X139771530Y-117449500D01*
X139568587Y-117489868D01*
X139568579Y-117489870D01*
X139377403Y-117569058D01*
X139205342Y-117684024D01*
X139059024Y-117830342D01*
X138944058Y-118002403D01*
X138864870Y-118193579D01*
X138864868Y-118193587D01*
X138824500Y-118396530D01*
X138824500Y-118603469D01*
X138864868Y-118806412D01*
X138864870Y-118806420D01*
X138944058Y-118997596D01*
X139059024Y-119169657D01*
X139205342Y-119315975D01*
X139205345Y-119315977D01*
X139377402Y-119430941D01*
X139487990Y-119476748D01*
X139542393Y-119520589D01*
X139564458Y-119586883D01*
X139547179Y-119654582D01*
X139496042Y-119702193D01*
X139478856Y-119709240D01*
X139356781Y-119748905D01*
X139167442Y-119845379D01*
X138995540Y-119970272D01*
X138995535Y-119970276D01*
X138845276Y-120120535D01*
X138845272Y-120120540D01*
X138720379Y-120292442D01*
X138623904Y-120481782D01*
X138558242Y-120683870D01*
X138558242Y-120683873D01*
X138547769Y-120750000D01*
X116069783Y-120750000D01*
X116086263Y-120740485D01*
X116165485Y-120661263D01*
X116221503Y-120564237D01*
X116250500Y-120456018D01*
X116250500Y-120343982D01*
X116221503Y-120235763D01*
X116165485Y-120138737D01*
X116086263Y-120059515D01*
X115989237Y-120003497D01*
X115881018Y-119974500D01*
X115768982Y-119974500D01*
X115660763Y-120003497D01*
X115660760Y-120003498D01*
X115563740Y-120059513D01*
X115563734Y-120059517D01*
X115484517Y-120138734D01*
X115484513Y-120138740D01*
X115428498Y-120235760D01*
X115428497Y-120235763D01*
X115399500Y-120343982D01*
X113418677Y-120343982D01*
X113425500Y-120318518D01*
X113425500Y-120206482D01*
X113396503Y-120098263D01*
X113340485Y-120001237D01*
X113261263Y-119922015D01*
X113164237Y-119865997D01*
X113056018Y-119837000D01*
X112943982Y-119837000D01*
X112835763Y-119865997D01*
X112835760Y-119865998D01*
X112738740Y-119922013D01*
X112738734Y-119922017D01*
X112659517Y-120001234D01*
X112659513Y-120001240D01*
X112603498Y-120098260D01*
X112603497Y-120098263D01*
X112574500Y-120206482D01*
X111825500Y-120206482D01*
X111796503Y-120098263D01*
X111740485Y-120001237D01*
X111661263Y-119922015D01*
X111564237Y-119865997D01*
X111456018Y-119837000D01*
X111343982Y-119837000D01*
X111235763Y-119865997D01*
X111235760Y-119865998D01*
X111138740Y-119922013D01*
X111138734Y-119922017D01*
X111059517Y-120001234D01*
X111059513Y-120001240D01*
X111003498Y-120098260D01*
X111003497Y-120098263D01*
X110974500Y-120206482D01*
X100429271Y-120206482D01*
X100442630Y-120183343D01*
X100475000Y-120062535D01*
X100475000Y-119937465D01*
X100442630Y-119816657D01*
X100404146Y-119750000D01*
X101452231Y-119750000D01*
X101441757Y-119683873D01*
X101441757Y-119683870D01*
X101376095Y-119481782D01*
X101279620Y-119292442D01*
X101154727Y-119120540D01*
X101154723Y-119120535D01*
X101004464Y-118970276D01*
X101004459Y-118970272D01*
X100832557Y-118845379D01*
X100643217Y-118748904D01*
X100441128Y-118683242D01*
X100250000Y-118652969D01*
X100250000Y-119595854D01*
X100183343Y-119557370D01*
X100062535Y-119525000D01*
X99937465Y-119525000D01*
X99816657Y-119557370D01*
X99750000Y-119595854D01*
X99750000Y-118652969D01*
X99558872Y-118683242D01*
X99558869Y-118683242D01*
X99356782Y-118748904D01*
X99167442Y-118845379D01*
X98995540Y-118970272D01*
X98995535Y-118970276D01*
X98845276Y-119120535D01*
X98845272Y-119120540D01*
X98720379Y-119292442D01*
X98623904Y-119481782D01*
X98558242Y-119683870D01*
X98558242Y-119683873D01*
X98547769Y-119750000D01*
X96500500Y-119750000D01*
X96500500Y-115896530D01*
X138824500Y-115896530D01*
X138824500Y-116103469D01*
X138864868Y-116306412D01*
X138864870Y-116306420D01*
X138944058Y-116497596D01*
X139059024Y-116669657D01*
X139205342Y-116815975D01*
X139205345Y-116815977D01*
X139377402Y-116930941D01*
X139568580Y-117010130D01*
X139771530Y-117050499D01*
X139771534Y-117050500D01*
X139771535Y-117050500D01*
X140228466Y-117050500D01*
X140228467Y-117050499D01*
X140431420Y-117010130D01*
X140622598Y-116930941D01*
X140794655Y-116815977D01*
X140940977Y-116669655D01*
X141055941Y-116497598D01*
X141135130Y-116306420D01*
X141175500Y-116103465D01*
X141175500Y-115896535D01*
X141135130Y-115693580D01*
X141055941Y-115502402D01*
X140940977Y-115330345D01*
X140940975Y-115330342D01*
X140794657Y-115184024D01*
X140708626Y-115126541D01*
X140622598Y-115069059D01*
X140431420Y-114989870D01*
X140431412Y-114989868D01*
X140228469Y-114949500D01*
X140228465Y-114949500D01*
X139771535Y-114949500D01*
X139771530Y-114949500D01*
X139568587Y-114989868D01*
X139568579Y-114989870D01*
X139377403Y-115069058D01*
X139205342Y-115184024D01*
X139059024Y-115330342D01*
X138944058Y-115502403D01*
X138864870Y-115693579D01*
X138864868Y-115693587D01*
X138824500Y-115896530D01*
X96500500Y-115896530D01*
X96500500Y-114329500D01*
X96520185Y-114262461D01*
X96572989Y-114216706D01*
X96624500Y-114205500D01*
X108875991Y-114205500D01*
X108876000Y-114205500D01*
X108919684Y-114200803D01*
X108948875Y-114194452D01*
X108971174Y-114189602D01*
X108971190Y-114189598D01*
X108971195Y-114189597D01*
X108981373Y-114187110D01*
X109062085Y-114144100D01*
X109114889Y-114098345D01*
X109132843Y-114080754D01*
X109177490Y-114000937D01*
X109197175Y-113933898D01*
X109205500Y-113876000D01*
X109205500Y-112845730D01*
X138824500Y-112845730D01*
X138824500Y-114154269D01*
X138827353Y-114184699D01*
X138827353Y-114184701D01*
X138872206Y-114312880D01*
X138872207Y-114312882D01*
X138952850Y-114422150D01*
X139062118Y-114502793D01*
X139104845Y-114517744D01*
X139190299Y-114547646D01*
X139220730Y-114550500D01*
X139220734Y-114550500D01*
X140779270Y-114550500D01*
X140809699Y-114547646D01*
X140809701Y-114547646D01*
X140873790Y-114525219D01*
X140937882Y-114502793D01*
X141047150Y-114422150D01*
X141127793Y-114312882D01*
X141150219Y-114248790D01*
X141172646Y-114184701D01*
X141172646Y-114184699D01*
X141175500Y-114154269D01*
X141175500Y-112845730D01*
X141172646Y-112815300D01*
X141172646Y-112815298D01*
X141127793Y-112687119D01*
X141127792Y-112687117D01*
X141047150Y-112577850D01*
X140937882Y-112497207D01*
X140937880Y-112497206D01*
X140809700Y-112452353D01*
X140779270Y-112449500D01*
X140779266Y-112449500D01*
X139220734Y-112449500D01*
X139220730Y-112449500D01*
X139190300Y-112452353D01*
X139190298Y-112452353D01*
X139062119Y-112497206D01*
X139062117Y-112497207D01*
X138952850Y-112577850D01*
X138872207Y-112687117D01*
X138872206Y-112687119D01*
X138827353Y-112815298D01*
X138827353Y-112815300D01*
X138824500Y-112845730D01*
X109205500Y-112845730D01*
X109205500Y-111806482D01*
X111874500Y-111806482D01*
X111874500Y-111918518D01*
X111903497Y-112026737D01*
X111959515Y-112123763D01*
X112038737Y-112202985D01*
X112135763Y-112259003D01*
X112243982Y-112288000D01*
X112243984Y-112288000D01*
X112356016Y-112288000D01*
X112356018Y-112288000D01*
X112464237Y-112259003D01*
X112561263Y-112202985D01*
X112640485Y-112123763D01*
X112696503Y-112026737D01*
X112725500Y-111918518D01*
X112725500Y-111806482D01*
X112696503Y-111698263D01*
X112640485Y-111601237D01*
X112561263Y-111522015D01*
X112464237Y-111465997D01*
X112356018Y-111437000D01*
X112243982Y-111437000D01*
X112135763Y-111465997D01*
X112135760Y-111465998D01*
X112038740Y-111522013D01*
X112038734Y-111522017D01*
X111959517Y-111601234D01*
X111959513Y-111601240D01*
X111903498Y-111698260D01*
X111903497Y-111698263D01*
X111874500Y-111806482D01*
X109205500Y-111806482D01*
X109205500Y-108124000D01*
X109200803Y-108080316D01*
X109196897Y-108062364D01*
X109189602Y-108028825D01*
X109189348Y-108027789D01*
X109187110Y-108018627D01*
X109144100Y-107937915D01*
X109098345Y-107885111D01*
X109098339Y-107885104D01*
X109080757Y-107867160D01*
X109080756Y-107867159D01*
X109080754Y-107867157D01*
X109080752Y-107867156D01*
X109080750Y-107867154D01*
X109000940Y-107822511D01*
X109000935Y-107822509D01*
X108933903Y-107802826D01*
X108933899Y-107802825D01*
X108933898Y-107802825D01*
X108876000Y-107794500D01*
X96624500Y-107794500D01*
X96557461Y-107774815D01*
X96511706Y-107722011D01*
X96500500Y-107670500D01*
X96500500Y-104943982D01*
X97699500Y-104943982D01*
X97699500Y-105056018D01*
X97728497Y-105164237D01*
X97784515Y-105261263D01*
X97863737Y-105340485D01*
X97960763Y-105396503D01*
X98068982Y-105425500D01*
X98068984Y-105425500D01*
X98181016Y-105425500D01*
X98181018Y-105425500D01*
X98289237Y-105396503D01*
X98386263Y-105340485D01*
X98465485Y-105261263D01*
X98521503Y-105164237D01*
X98550500Y-105056018D01*
X98550500Y-104943982D01*
X98521503Y-104835763D01*
X98465485Y-104738737D01*
X98386263Y-104659515D01*
X98289237Y-104603497D01*
X98181018Y-104574500D01*
X98068982Y-104574500D01*
X97960763Y-104603497D01*
X97960760Y-104603498D01*
X97863740Y-104659513D01*
X97863734Y-104659517D01*
X97784517Y-104738734D01*
X97784513Y-104738740D01*
X97728498Y-104835760D01*
X97728497Y-104835763D01*
X97699500Y-104943982D01*
X96500500Y-104943982D01*
X96500500Y-101013996D01*
X96520185Y-100946957D01*
X96572989Y-100901202D01*
X96642147Y-100891258D01*
X96705703Y-100920283D01*
X96743159Y-100977998D01*
X96779398Y-101097463D01*
X96794418Y-101146977D01*
X96922278Y-101455656D01*
X96922280Y-101455661D01*
X97079769Y-101750303D01*
X97079780Y-101750321D01*
X97265393Y-102028109D01*
X97265403Y-102028123D01*
X97477361Y-102286395D01*
X97713604Y-102522638D01*
X97713609Y-102522642D01*
X97713610Y-102522643D01*
X97971882Y-102734601D01*
X98249685Y-102920224D01*
X98249694Y-102920229D01*
X98249696Y-102920230D01*
X98544338Y-103077719D01*
X98544340Y-103077719D01*
X98544346Y-103077723D01*
X98853024Y-103205582D01*
X99172749Y-103302569D01*
X99172755Y-103302570D01*
X99172758Y-103302571D01*
X99172769Y-103302574D01*
X99378243Y-103343444D01*
X99500441Y-103367751D01*
X99832944Y-103400500D01*
X99832947Y-103400500D01*
X100167053Y-103400500D01*
X100167056Y-103400500D01*
X100499559Y-103367751D01*
X100661757Y-103335487D01*
X100827230Y-103302574D01*
X100827241Y-103302571D01*
X100827241Y-103302570D01*
X100827251Y-103302569D01*
X101146976Y-103205582D01*
X101455654Y-103077723D01*
X101750315Y-102920224D01*
X101789589Y-102893982D01*
X117034500Y-102893982D01*
X117034500Y-103006018D01*
X117063497Y-103114237D01*
X117119515Y-103211263D01*
X117198737Y-103290485D01*
X117295763Y-103346503D01*
X117403982Y-103375500D01*
X117403984Y-103375500D01*
X117516016Y-103375500D01*
X117516018Y-103375500D01*
X117624237Y-103346503D01*
X117721263Y-103290485D01*
X117800485Y-103211263D01*
X117856503Y-103114237D01*
X117885500Y-103006018D01*
X117885500Y-102893982D01*
X117856503Y-102785763D01*
X117800485Y-102688737D01*
X117721263Y-102609515D01*
X117624237Y-102553497D01*
X117516018Y-102524500D01*
X117403982Y-102524500D01*
X117295763Y-102553497D01*
X117295760Y-102553498D01*
X117198740Y-102609513D01*
X117198734Y-102609517D01*
X117119517Y-102688734D01*
X117119513Y-102688740D01*
X117063498Y-102785760D01*
X117063497Y-102785763D01*
X117034500Y-102893982D01*
X101789589Y-102893982D01*
X102028118Y-102734601D01*
X102286390Y-102522643D01*
X102522643Y-102286390D01*
X102734601Y-102028118D01*
X102920224Y-101750315D01*
X103077723Y-101455654D01*
X103205582Y-101146976D01*
X103302569Y-100827251D01*
X103302571Y-100827241D01*
X103302574Y-100827230D01*
X103335487Y-100661757D01*
X103367751Y-100499559D01*
X103400500Y-100167056D01*
X103400500Y-99832944D01*
X103367751Y-99500441D01*
X103343444Y-99378243D01*
X103302574Y-99172769D01*
X103302571Y-99172758D01*
X103302570Y-99172755D01*
X103302569Y-99172749D01*
X103248341Y-98993982D01*
X117034500Y-98993982D01*
X117034500Y-99106018D01*
X117063497Y-99214237D01*
X117119515Y-99311263D01*
X117198737Y-99390485D01*
X117295763Y-99446503D01*
X117403982Y-99475500D01*
X117403984Y-99475500D01*
X117516016Y-99475500D01*
X117516018Y-99475500D01*
X117624237Y-99446503D01*
X117721263Y-99390485D01*
X117800485Y-99311263D01*
X117856503Y-99214237D01*
X117885500Y-99106018D01*
X117885500Y-98993982D01*
X119574500Y-98993982D01*
X119574500Y-99106018D01*
X119603497Y-99214237D01*
X119659515Y-99311263D01*
X119738737Y-99390485D01*
X119835763Y-99446503D01*
X119943982Y-99475500D01*
X119943984Y-99475500D01*
X120056016Y-99475500D01*
X120056018Y-99475500D01*
X120164237Y-99446503D01*
X120261263Y-99390485D01*
X120340485Y-99311263D01*
X120396503Y-99214237D01*
X120425500Y-99106018D01*
X120425500Y-98993982D01*
X120844500Y-98993982D01*
X120844500Y-99106018D01*
X120873497Y-99214237D01*
X120929515Y-99311263D01*
X121008737Y-99390485D01*
X121105763Y-99446503D01*
X121213982Y-99475500D01*
X121213984Y-99475500D01*
X121326016Y-99475500D01*
X121326018Y-99475500D01*
X121434237Y-99446503D01*
X121531263Y-99390485D01*
X121610485Y-99311263D01*
X121666503Y-99214237D01*
X121695500Y-99106018D01*
X121695500Y-98993982D01*
X121666503Y-98885763D01*
X121610485Y-98788737D01*
X121531263Y-98709515D01*
X121466579Y-98672169D01*
X121434239Y-98653498D01*
X121434238Y-98653497D01*
X121434237Y-98653497D01*
X121326018Y-98624500D01*
X121213982Y-98624500D01*
X121105763Y-98653497D01*
X121105760Y-98653498D01*
X121008740Y-98709513D01*
X121008734Y-98709517D01*
X120929517Y-98788734D01*
X120929513Y-98788740D01*
X120873498Y-98885760D01*
X120873497Y-98885763D01*
X120844500Y-98993982D01*
X120425500Y-98993982D01*
X120396503Y-98885763D01*
X120340485Y-98788737D01*
X120261263Y-98709515D01*
X120196579Y-98672169D01*
X120164239Y-98653498D01*
X120164238Y-98653497D01*
X120164237Y-98653497D01*
X120056018Y-98624500D01*
X119943982Y-98624500D01*
X119835763Y-98653497D01*
X119835760Y-98653498D01*
X119738740Y-98709513D01*
X119738734Y-98709517D01*
X119659517Y-98788734D01*
X119659513Y-98788740D01*
X119603498Y-98885760D01*
X119603497Y-98885763D01*
X119574500Y-98993982D01*
X117885500Y-98993982D01*
X117856503Y-98885763D01*
X117800485Y-98788737D01*
X117721263Y-98709515D01*
X117656579Y-98672169D01*
X117624239Y-98653498D01*
X117624238Y-98653497D01*
X117624237Y-98653497D01*
X117516018Y-98624500D01*
X117403982Y-98624500D01*
X117295763Y-98653497D01*
X117295760Y-98653498D01*
X117198740Y-98709513D01*
X117198734Y-98709517D01*
X117119517Y-98788734D01*
X117119513Y-98788740D01*
X117063498Y-98885760D01*
X117063497Y-98885763D01*
X117034500Y-98993982D01*
X103248341Y-98993982D01*
X103205582Y-98853024D01*
X103077723Y-98544346D01*
X102920224Y-98249685D01*
X102734601Y-97971882D01*
X102522643Y-97713610D01*
X102522642Y-97713609D01*
X102522638Y-97713604D01*
X102286395Y-97477361D01*
X102028123Y-97265403D01*
X102028122Y-97265402D01*
X102028118Y-97265399D01*
X101750315Y-97079776D01*
X101750310Y-97079773D01*
X101750303Y-97079769D01*
X101455661Y-96922280D01*
X101455656Y-96922278D01*
X101146977Y-96794418D01*
X101056208Y-96766884D01*
X100978000Y-96743160D01*
X100919563Y-96704863D01*
X100891107Y-96641051D01*
X100901667Y-96571984D01*
X100947891Y-96519591D01*
X101013997Y-96500500D01*
X138986003Y-96500500D01*
X139053042Y-96520185D01*
G37*
%TD.AperFunction*%
%TD*%
%TA.AperFunction,Conductor*%
%TO.N,+5V*%
G36*
X108943039Y-108019685D02*
G01*
X108988794Y-108072489D01*
X109000000Y-108124000D01*
X109000000Y-113876000D01*
X108980315Y-113943039D01*
X108927511Y-113988794D01*
X108876000Y-114000000D01*
X96624500Y-114000000D01*
X96557461Y-113980315D01*
X96511706Y-113927511D01*
X96500500Y-113876000D01*
X96500500Y-109750000D01*
X98522769Y-109750000D01*
X99566988Y-109750000D01*
X99534075Y-109807007D01*
X99500000Y-109934174D01*
X99500000Y-110065826D01*
X99534075Y-110192993D01*
X99566988Y-110250000D01*
X98522769Y-110250000D01*
X98533242Y-110316126D01*
X98533242Y-110316129D01*
X98598904Y-110518217D01*
X98695379Y-110707557D01*
X98820272Y-110879459D01*
X98820276Y-110879464D01*
X98970535Y-111029723D01*
X98970540Y-111029727D01*
X99142442Y-111154620D01*
X99260971Y-111215015D01*
X99311767Y-111262990D01*
X99328562Y-111330811D01*
X99306024Y-111396946D01*
X99251309Y-111440397D01*
X99204676Y-111449500D01*
X99195730Y-111449500D01*
X99165300Y-111452353D01*
X99165298Y-111452353D01*
X99037119Y-111497206D01*
X99037117Y-111497207D01*
X98927850Y-111577850D01*
X98847207Y-111687117D01*
X98847206Y-111687119D01*
X98802353Y-111815298D01*
X98802353Y-111815300D01*
X98799500Y-111845730D01*
X98799500Y-113154269D01*
X98802353Y-113184699D01*
X98802353Y-113184701D01*
X98847206Y-113312880D01*
X98847207Y-113312882D01*
X98927850Y-113422150D01*
X99037118Y-113502793D01*
X99079845Y-113517744D01*
X99165299Y-113547646D01*
X99195730Y-113550500D01*
X99195734Y-113550500D01*
X100804270Y-113550500D01*
X100834699Y-113547646D01*
X100834701Y-113547646D01*
X100898790Y-113525219D01*
X100962882Y-113502793D01*
X101072150Y-113422150D01*
X101152793Y-113312882D01*
X101175219Y-113248790D01*
X101197646Y-113184701D01*
X101197646Y-113184699D01*
X101200500Y-113154269D01*
X101200500Y-111845730D01*
X101197646Y-111815300D01*
X101197646Y-111815298D01*
X101194561Y-111806482D01*
X105274500Y-111806482D01*
X105274500Y-111918518D01*
X105303497Y-112026737D01*
X105359515Y-112123763D01*
X105438737Y-112202985D01*
X105535763Y-112259003D01*
X105643982Y-112288000D01*
X105643984Y-112288000D01*
X105756016Y-112288000D01*
X105756018Y-112288000D01*
X105864237Y-112259003D01*
X105961263Y-112202985D01*
X106040485Y-112123763D01*
X106096503Y-112026737D01*
X106125500Y-111918518D01*
X106125500Y-111806482D01*
X106096503Y-111698263D01*
X106040485Y-111601237D01*
X105961263Y-111522015D01*
X105864237Y-111465997D01*
X105756018Y-111437000D01*
X105643982Y-111437000D01*
X105535763Y-111465997D01*
X105535760Y-111465998D01*
X105438740Y-111522013D01*
X105438734Y-111522017D01*
X105359517Y-111601234D01*
X105359513Y-111601240D01*
X105303498Y-111698260D01*
X105303497Y-111698263D01*
X105274500Y-111806482D01*
X101194561Y-111806482D01*
X101152793Y-111687119D01*
X101152792Y-111687117D01*
X101072150Y-111577850D01*
X100962882Y-111497207D01*
X100962880Y-111497206D01*
X100834700Y-111452353D01*
X100804270Y-111449500D01*
X100804266Y-111449500D01*
X100795324Y-111449500D01*
X100728285Y-111429815D01*
X100682530Y-111377011D01*
X100672586Y-111307853D01*
X100701611Y-111244297D01*
X100739029Y-111215015D01*
X100857557Y-111154620D01*
X101029459Y-111029727D01*
X101029464Y-111029723D01*
X101115205Y-110943982D01*
X107224500Y-110943982D01*
X107224500Y-111056018D01*
X107253497Y-111164237D01*
X107309515Y-111261263D01*
X107388737Y-111340485D01*
X107485763Y-111396503D01*
X107593982Y-111425500D01*
X107593984Y-111425500D01*
X107706016Y-111425500D01*
X107706018Y-111425500D01*
X107814237Y-111396503D01*
X107911263Y-111340485D01*
X107990485Y-111261263D01*
X108046503Y-111164237D01*
X108075500Y-111056018D01*
X108075500Y-110943982D01*
X108046503Y-110835763D01*
X107990485Y-110738737D01*
X107911263Y-110659515D01*
X107814237Y-110603497D01*
X107706018Y-110574500D01*
X107593982Y-110574500D01*
X107485763Y-110603497D01*
X107485760Y-110603498D01*
X107388740Y-110659513D01*
X107388734Y-110659517D01*
X107309517Y-110738734D01*
X107309513Y-110738740D01*
X107253498Y-110835760D01*
X107253497Y-110835763D01*
X107224500Y-110943982D01*
X101115205Y-110943982D01*
X101179723Y-110879464D01*
X101179727Y-110879459D01*
X101191708Y-110862970D01*
X101304620Y-110707557D01*
X101401095Y-110518217D01*
X101466757Y-110316129D01*
X101466757Y-110316126D01*
X101477231Y-110250000D01*
X100433012Y-110250000D01*
X100465925Y-110192993D01*
X100500000Y-110065826D01*
X100500000Y-109934174D01*
X100465925Y-109807007D01*
X100433012Y-109750000D01*
X101477231Y-109750000D01*
X101466757Y-109683873D01*
X101466757Y-109683870D01*
X101401095Y-109481782D01*
X101304620Y-109292442D01*
X101179727Y-109120540D01*
X101179723Y-109120535D01*
X101029464Y-108970276D01*
X101029459Y-108970272D01*
X100857557Y-108845379D01*
X100668217Y-108748904D01*
X100466129Y-108683242D01*
X100256246Y-108650000D01*
X100250000Y-108650000D01*
X100250000Y-109566988D01*
X100192993Y-109534075D01*
X100065826Y-109500000D01*
X99934174Y-109500000D01*
X99807007Y-109534075D01*
X99750000Y-109566988D01*
X99750000Y-108650000D01*
X99743754Y-108650000D01*
X99533872Y-108683242D01*
X99533869Y-108683242D01*
X99331782Y-108748904D01*
X99142442Y-108845379D01*
X98970540Y-108970272D01*
X98970535Y-108970276D01*
X98820276Y-109120535D01*
X98820272Y-109120540D01*
X98695379Y-109292442D01*
X98598904Y-109481782D01*
X98533242Y-109683870D01*
X98533242Y-109683873D01*
X98522769Y-109750000D01*
X96500500Y-109750000D01*
X96500500Y-108124000D01*
X96520185Y-108056961D01*
X96572989Y-108011206D01*
X96624500Y-108000000D01*
X108876000Y-108000000D01*
X108943039Y-108019685D01*
G37*
%TD.AperFunction*%
%TD*%
M02*
