M48
; DRILL file {KiCad 9.0.7} date 2026-02-11T09:42:08+0100
; FORMAT={-:-/ absolute / metric / decimal}
; #@! TF.CreationDate,2026-02-11T09:42:08+01:00
; #@! TF.GenerationSoftware,Kicad,Pcbnew,9.0.7
; #@! TF.FileFunction,Plated,1,4,PTH
FMAT,2
METRIC
; #@! TA.AperFunction,Plated,PTH,ViaDrill
T1C0.300
; #@! TA.AperFunction,Plated,PTH,ComponentDrill
T2C0.500
; #@! TA.AperFunction,Plated,PTH,ComponentDrill
T3C0.950
; #@! TA.AperFunction,Plated,PTH,ComponentDrill
T4C1.000
; #@! TA.AperFunction,Plated,PTH,ComponentDrill
T5C3.200
%
G90
G05
T1
X98.125Y-105.0
X103.912Y-105.0
X105.7Y-110.137
X105.7Y-111.862
X107.65Y-110.05
X107.65Y-111.0
X107.65Y-111.95
X110.35Y-110.05
X111.337Y-121.9
X111.4Y-118.537
X111.4Y-120.262
X112.3Y-110.137
X112.3Y-111.862
X113.0Y-118.537
X113.0Y-120.262
X115.825Y-119.6
X115.825Y-120.4
X117.46Y-99.05
X117.46Y-102.95
X117.5Y-121.2
X120.0Y-99.05
X121.27Y-99.05
X122.54Y-99.05
X131.0Y-114.188
X131.0Y-120.312
X132.0Y-141.875
X135.0Y-141.875
T2
X97.6Y-100.0
X97.6Y-140.0
X98.303Y-98.303
X98.303Y-101.697
X98.303Y-138.303
X98.303Y-141.697
X100.0Y-97.6
X100.0Y-102.4
X100.0Y-137.6
X100.0Y-142.4
X101.697Y-98.303
X101.697Y-101.697
X101.697Y-138.303
X101.697Y-141.697
X102.4Y-100.0
X102.4Y-140.0
X137.6Y-100.0
X137.6Y-140.0
X138.303Y-98.303
X138.303Y-101.697
X138.303Y-138.303
X138.303Y-141.697
X140.0Y-97.6
X140.0Y-102.4
X140.0Y-137.6
X140.0Y-142.4
X141.697Y-98.303
X141.697Y-101.697
X141.697Y-138.303
X141.697Y-141.697
X142.4Y-100.0
X142.4Y-140.0
T3
X100.0Y-120.0
X100.0Y-122.5
X100.0Y-125.0
X100.0Y-127.5
X114.5Y-141.0
X117.0Y-141.0
X119.5Y-141.0
X122.0Y-141.0
X124.5Y-141.0
X127.0Y-141.0
X140.0Y-113.5
X140.0Y-116.0
X140.0Y-118.5
X140.0Y-121.0
T4
X100.0Y-110.0
X100.0Y-112.5
T5
X100.0Y-100.0
X100.0Y-140.0
X140.0Y-100.0
X140.0Y-140.0
M30
